<svg version="1.1" xmlns="http://www.w3.org/2000/svg" width="0" height="0" class="hidden">
    <symbol viewBox="0 0 752 752" id="facetime">
           <path fill="#fff" d="m411.67 248.58h-224.66c-7.8477 0-15.379 3.1172-20.93 8.668-5.5508 5.5508-8.668 13.082-8.668 20.93v195.8c0 7.8516 3.1172 15.379 8.668 20.93 5.5508 5.5508 13.082 8.6719 20.93 8.6719h224.66c7.8516 0 15.379-3.1211 20.93-8.6719 5.5508-5.5508 8.668-13.078 8.668-20.93v-195.8c0-7.8477-3.1172-15.379-8.668-20.93-5.5508-5.5508-13.078-8.668-20.93-8.668z"/>
           <path fill="#fff" d="m553.59 246.06-97.527 55.941v148l97.527 55.941c8.8281 5.0625 19.688 5.043 28.5-0.050781 8.8125-5.0898 14.25-14.488 14.27-24.664v-210.45c-0.019531-10.176-5.457-19.574-14.27-24.668-8.8125-5.0898-19.672-5.1094-28.5-0.046875z"/>
    </symbol>

    <symbol viewBox="0 0 752 752" id="mail">
       <path fill="#fff" d="m533.2 286.55v178.91c0 11.184-8.5508 19.734-19.734 19.734l-274.94-0.003906c-11.184 0-19.734-8.5508-19.734-19.734l0.003906-178.91c0-11.184 8.5508-19.734 19.734-19.734h275.6c10.52 0.003906 19.07 8.5547 19.07 19.734zm-23.02 20.391c3.9453-1.9727 5.2617-7.2344 2.6328-11.184-1.9727-3.9453-7.2344-5.2617-11.184-2.6328l-82.219 48.016-21.047 12.496c-14.469 8.5508-31.57 8.5508-46.043 0l-21.047-12.496-80.902-48.016c-3.9453-1.9727-9.207-1.3164-11.184 2.6328-1.9727 3.9453-1.3164 9.207 2.6328 11.184l73.664 42.754-75.641 94.715c-2.6328 3.2891-1.9727 8.5508 1.3164 11.84 1.3164 1.3164 3.2891 1.9727 5.2617 1.9727 2.6328 0 4.6055-1.3164 6.5781-3.2891l76.953-96.688 15.129 8.5508c9.8672 5.918 20.391 8.5508 31.57 8.5508 10.523 0 21.707-2.6328 30.914-8.5508l15.129-8.5508 76.961 96.688c1.3164 1.9727 3.9453 3.2891 6.5781 3.2891 1.9727 0 3.9453-0.65625 5.2617-1.9727 3.2891-2.6328 3.9453-7.8945 1.3164-11.84l-76.301-94.059z"/>
    </symbol>
  
<symbol viewBox="0 0 752 752" id="camera">
  <clipPath id="a">
   <path d="m139.21 183h473.58v386h-473.58z"/>
  </clipPath>
 </defs>
 <g clip-path="url(#a)">
  <path d="m376 335.21c-44.102 0.046875-79.773 35.727-79.836 79.84 0.066407 44.082 35.738 79.734 79.836 79.82 44.07-0.089844 79.746-35.742 79.84-79.816-0.09375-44.117-35.766-79.797-79.84-79.844zm213.31-66.184h-81.477l-6.3086-72.586c0-6.8516-5.5781-12.449-12.477-12.449h-226.1c-6.8984 0-12.461 5.5977-12.461 12.449l-6.3125 72.582h-14.035v-16.238c0-5.6836-4.6133-10.277-10.297-10.277h-46.078c-5.6836 0-10.297 4.5977-10.297 10.277v16.238h-0.78125c-12.953 0.003907-23.48 10.488-23.48 23.445v252.07c0 12.98 10.523 23.48 23.48 23.48h426.62c12.965 0 23.48-10.5 23.48-23.48v-252.07c0-12.957-10.516-23.441-23.48-23.441zm-392.39 98.676c-16.102 0-29.16-13.062-29.16-29.184 0-16.105 13.051-29.164 29.16-29.164 16.125 0 29.16 13.055 29.16 29.164-0.003906 16.121-13.035 29.184-29.16 29.184zm118.23-151.54h121.7c7.5 0 13.562 6.0938 13.562 13.555 0 7.4961-6.0703 13.574-13.562 13.574l-121.7-0.003906c-7.457 0-13.539-6.082-13.539-13.574 0-7.4531 6.082-13.551 13.539-13.551zm60.855 314.86c-64.086 0-115.98-51.91-116.01-115.98 0.027344-64.102 51.93-116.02 116.01-116.02 64.066 0 115.98 51.914 116 116.01-0.019532 64.07-51.93 115.98-116 115.98z" fill="#2e2e30"/>
 </g>
</symbol>

<symbol viewBox="0 0 752 752" id="clock">
  <path fill="#f5f5f8" xmlns="http://www.w3.org/2000/svg" d="m376 144.76c-40.59 0-80.469 10.684-115.62 30.98-35.152 20.293-64.344 49.484-84.641 84.641-20.293 35.152-30.98 75.027-30.98 115.62 0 40.594 10.688 80.469 30.98 115.62 20.297 35.152 49.488 64.344 84.641 84.641s75.031 30.98 115.62 30.98 80.469-10.684 115.62-30.98 64.344-49.488 84.641-84.641c20.293-35.152 30.98-75.027 30.98-115.62 0-40.59-10.688-80.465-30.98-115.62-20.297-35.156-49.488-64.348-84.641-84.641-35.152-20.297-75.031-30.98-115.62-30.98zm-0.14062 17.398v-0.003906c2.5-0.035156 4.9102 0.94141 6.6797 2.707 1.7695 1.7656 2.7461 4.1758 2.7109 6.6758v48.098c0.035156 2.4766-0.92578 4.8594-2.6641 6.625-1.7383 1.7617-4.1094 2.7539-6.5859 2.7539s-4.8477-0.99219-6.5859-2.7539c-1.7383-1.7656-2.6992-4.1484-2.6641-6.625v-48.098c-0.070312-5.1055 4.0078-9.3047 9.1094-9.3828zm104.56 27.824 0.003906-0.003906c2.375 0.019531 4.5625 1.3125 5.7266 3.3828 1.168 2.0742 1.1328 4.6133-0.082032 6.6562l-12.387 21.453c-0.86328 1.5547-2.3164 2.6992-4.0312 3.1758-1.7148 0.47656-3.5508 0.24219-5.0938-0.64844-1.543-0.89062-2.6602-2.3594-3.1094-4.0859-0.44531-1.7227-0.17969-3.5547 0.73828-5.082l12.387-21.453c1.1797-2.1133 3.4258-3.418 5.8516-3.3984zm-209.04 0.003906v-0.003906c2.4961-0.097656 4.8359 1.2148 6.0547 3.3984l12.387 21.453-0.003906-0.003907c0.89844 1.5273 1.1484 3.3477 0.69922 5.0586-0.45312 1.7109-1.5703 3.1719-3.1016 4.0586-1.5312 0.88281-3.3555 1.1211-5.0625 0.65625-1.707-0.46484-3.1602-1.5938-4.0312-3.1328l-12.387-21.453c-1.1992-2.0117-1.25-4.5078-0.13281-6.5703 1.1172-2.0586 3.2383-3.375 5.5781-3.4648zm-76.355 76.398v-0.003907c0.15625-0.003906 0.30859-0.003906 0.46094 0 1.1133 0.042969 2.1953 0.36328 3.1523 0.93359l21.453 12.387c1.5469 0.86719 2.6836 2.3203 3.1562 4.0312 0.46875 1.7109 0.23438 3.543-0.65234 5.0781-0.89062 1.5391-2.3555 2.6562-4.0742 3.1055s-3.543 0.1875-5.0703-0.71875l-21.453-12.387c-2.6016-1.4531-3.918-4.4648-3.2109-7.3633 0.70703-2.8984 3.2578-4.9727 6.2383-5.0664zm361.95 0v-0.003907c2.9805 0.09375 5.5312 2.168 6.2383 5.0664 0.70312 2.8984-0.60938 5.9102-3.2148 7.3633l-21.453 12.387c-1.5234 0.91797-3.3555 1.1836-5.0781 0.73438-1.7266-0.44531-3.1992-1.5625-4.0898-3.1055-0.88672-1.543-1.1211-3.3789-0.64453-5.0938 0.47266-1.7148 1.6211-3.168 3.1758-4.0312l21.453-12.387c1.0898-0.64844 2.3438-0.97266 3.6133-0.93359zm-181.17 10.266v-0.003906c3.4375-0.050782 6.75 1.2891 9.1836 3.7227 2.4297 2.4297 3.7773 5.7383 3.7266 9.1758v67.164c2.9922 1.9766 5.4805 4.625 7.2734 7.7266h96.645c3.0977-0.042969 6.0781 1.1562 8.2812 3.3281 2.207 2.1758 3.4453 5.1406 3.4453 8.2344 0 3.0977-1.2383 6.0625-3.4453 8.2344-2.2031 2.1758-5.1836 3.3711-8.2812 3.3281h-96.637 0.003906c-4.1289 7.1484-11.75 11.555-20.004 11.562-6.1328 0-12.016-2.4375-16.352-6.7734-4.3359-4.3359-6.7734-10.219-6.7734-16.352 0.003906-7.7695 3.9141-15.02 10.406-19.297v-67.156c-0.10156-7.0195 5.5078-12.793 12.527-12.898zm0.19141 91.277c-2.1406 0-4.1953 0.84766-5.707 2.3633-1.5156 1.5117-2.3672 3.5664-2.3672 5.707 0 2.1445 0.85156 4.1953 2.3672 5.7109 1.5117 1.5156 3.5664 2.3633 5.707 2.3633s4.1953-0.84766 5.7109-2.3633c1.5117-1.5156 2.3633-3.5664 2.3633-5.7109 0-2.1406-0.85156-4.1953-2.3633-5.707-1.5156-1.5156-3.5703-2.3633-5.7109-2.3633zm-205.88 0.23437h48.098c2.4766-0.035156 4.8633 0.92188 6.625 2.6602 1.7656 1.7383 2.7578 4.1133 2.7578 6.5898 0 2.4727-0.99219 4.8477-2.7578 6.5859-1.7617 1.7383-4.1484 2.6953-6.625 2.6602h-48.098c-2.4766 0.035156-4.8633-0.92188-6.625-2.6602s-2.7539-4.1133-2.7539-6.5859c0-2.4766 0.99219-4.8516 2.7539-6.5898s4.1484-2.6953 6.625-2.6602zm363.65 0h48.098c2.4766-0.035156 4.8633 0.92188 6.625 2.6602 1.7656 1.7383 2.7578 4.1133 2.7578 6.5898 0 2.4727-0.99219 4.8477-2.7578 6.5859-1.7617 1.7383-4.1484 2.6953-6.625 2.6602h-48.098c-2.4766 0.035156-4.8633-0.92188-6.625-2.6602-1.7656-1.7383-2.7578-4.1133-2.7578-6.5859 0-2.4766 0.99219-4.8516 2.7578-6.5898 1.7617-1.7383 4.1484-2.6953 6.625-2.6602zm-316.71 94.469c2.9805 0.09375 5.5312 2.168 6.2383 5.0664 0.70312 2.8984-0.60938 5.9102-3.2148 7.3633l-21.453 12.387c-1.5273 0.90625-3.3516 1.1641-5.0703 0.71875-1.7188-0.44922-3.1836-1.5664-4.0703-3.1055-0.89062-1.5391-1.125-3.3672-0.65234-5.0781 0.46875-1.7109 1.6055-3.1641 3.1523-4.0312l21.453-12.387c1.0938-0.65234 2.3477-0.97656 3.6172-0.93359zm317.87 0c0.15234-0.003906 0.30859-0.003906 0.46094 0 1.1133 0.042969 2.1953 0.36328 3.1484 0.93359l21.453 12.387c1.5586 0.86328 2.7031 2.3164 3.1797 4.0312 0.47656 1.7148 0.24219 3.5508-0.64844 5.0938-0.89062 1.5391-2.3633 2.6602-4.0859 3.1055-1.7227 0.44531-3.5547 0.18359-5.082-0.73438l-21.453-12.387c-2.6016-1.4531-3.918-4.4688-3.2109-7.3672 0.70312-2.8984 3.2578-4.9688 6.2383-5.0625zm-159.07 63.176h-0.003906c2.5-0.039063 4.9102 0.9375 6.6797 2.7031 1.7695 1.7695 2.7461 4.1758 2.7109 6.6758v48.098c0.035156 2.4766-0.92578 4.8633-2.6641 6.625-1.7383 1.7656-4.1094 2.7578-6.5859 2.7578s-4.8477-0.99219-6.5859-2.7578c-1.7383-1.7617-2.6992-4.1484-2.6641-6.625v-48.098c-0.070312-5.1055 4.0078-9.3047 9.1094-9.3789zm-91.688 4.0859-0.003906-0.003906c2.3789 0.023437 4.5664 1.3125 5.7305 3.3867 1.168 2.0742 1.1328 4.6094-0.085938 6.6523l-12.387 21.453h0.003906c-0.875 1.543-2.3242 2.668-4.0312 3.1328-1.7109 0.46484-3.5312 0.23047-5.0664-0.65625-1.5312-0.88281-2.6484-2.3438-3.0977-4.0547-0.45312-1.7109-0.20312-3.5312 0.69531-5.0586l12.387-21.453c1.1836-2.1172 3.4258-3.4219 5.8516-3.4023zm183.46 0.003907h-0.003906c2.4961-0.097657 4.832 1.2148 6.0508 3.3945l12.387 21.453c0.91406 1.5273 1.1797 3.3594 0.73438 5.082-0.44531 1.7227-1.5664 3.1953-3.1055 4.0859-1.543 0.89063-3.3789 1.125-5.0938 0.64844-1.7188-0.47656-3.168-1.6211-4.0312-3.1797l-12.387-21.453c-1.1992-2.0117-1.25-4.5078-0.13281-6.5664 1.1172-2.0586 3.2383-3.375 5.5781-3.4648z"/>
</symbol>

<symbol viewBox="0 0 752 752" id="weather">
  <path fill="rgba(227,243,253,.9)" xmlns="http://www.w3.org/2000/svg" d="m258.08 469.3h233.95c28.414 0 52.094-23.207 52.094-52.094 0-25.574-18.941-46.883-43.098-51.148-0.46875-46.883-38.832-84.77-86.188-84.77-31.73 0-59.672 17.523-74.824 43.098-8.0508-5.2109-17.523-8.5234-27.941-8.5234-27.469 0-49.727 22.258-49.727 49.727h-4.2617c-28.414 0-52.094 23.207-52.094 52.094 0.47266 27.938 23.676 51.617 52.09 51.617z"/>
</symbol>

<symbol id="reminders" viewbox="0 0 700 700">
  <circle cx="125" cy="150" r="60" fill="transparent" stroke="#0070fd" stroke-width="20" />
  <circle cx="125" cy="150" r="40" fill="#0070fd" />
   <circle cx="125" cy="350" r="60" fill="transparent" stroke="#fe2c1d" stroke-width="20" />
     <circle cx="125" cy="350" r="40" fill="#fe2c1d" />
    <circle cx="125" cy="550" r="60" fill="transparent" stroke="#ff9200" stroke-width="20" />
    <circle cx="125" cy="550" r="40" fill="#ff9200" />
    <rect width="380" height="8" x="250" y="146" fill="#d0cfd4" />
    <rect width="380" height="8" x="250" y="346" fill="#d0cfd4" />
    <rect width="380" height="8" x="250" y="546" fill="#d0cfd4" />
</symbol>


<symbol id="stocks" viewBox="0 0 700 700">
     <rect x="16%" y="0" width="2" height="700" fill="#dadadb" />
     <rect x="33%" y="0" width="2" height="700" fill="#dadadb" />
     <rect x="50%" y="0" width="2" height="700" fill="#dadadb" />
     <rect x="84%" y="0" width="2" height="700" fill="#dadadb" />
     <path d="M 0 400 L 60 400 L 140 440 L 180 420 L 220 360 L 260 400 L 300 300 L 320 420 L 360 440 L 400 380 L 440 360 L 466 240 L 500 340 L 540 320 L 560 420 L 600 340 L 640 300 L 705 260 L 705 705 L -5 703 L -5 400 " stroke="#a9a9a9" stroke-width="10" fill="url(#stocksGradient)" /> </path>

<defs>
    <linearGradient id="stocksGradient" gradientTransform="rotate(90)">
      <stop offset="0%" stop-color="rgba(100, 100, 100, .4)" />
      <stop offset="100%" stop-color="none" />
    </linearGradient>
  </defs>
     <rect x="66%" y="0" width="10" height="700" fill="#109ddf" />
     <circle cx="465" cy="220" r="35" fill="#109ddf" stroke="#1a1a1c" stroke-width="20" />      
 </symbol>

  <symbol viewBox="0 0 752 752" id="books">
    <path d="m578.78 249.16v231.51s-65.859-18.516-114.8-9.1055c-43.828 8.4258-76.086 32.203-81.527 36.402v0.69922s-0.16016-0.12891-0.45312-0.35547c-0.28906 0.22656-0.44922 0.35547-0.44922 0.35547v-0.69922c-5.4375-4.1992-37.691-27.973-81.508-36.402-48.949-9.418-121.26 9.1055-121.26 9.1055v-232.19c-4.2305 0.63281-8.7148 1.3125-13.535 2.0312v249.4s78.805-20.277 132.41-9.9648c52.715 10.141 84.562 40.637 84.562 40.637s31.848-30.5 84.559-40.637c53.613-10.32 129.18 9.9648 129.18 9.9648l-0.003906-248.32c0.003906 0-6.5742-1.1133-17.184-2.4219zm-282.71 198.97c42.863 8.2344 75.992 33.047 75.992 33.047l-0.003906-227.77s-33.301-24.84-76.266-33.098c-43.488-8.3633-100.3 8.1602-100.3 8.1602v227.77c0.003907-0.003906 56.992-16.492 100.58-8.1094zm265.98 8.9375v-227.76s-52.074-16.527-95.547-8.1602c-42.965 8.2539-77.359 33.09-77.359 33.09v227.77s34.207-24.801 77.078-33.051c43.582-8.3711 95.828 8.1133 95.828 8.1133z" fill="#fff" fill-rule="evenodd"/>
</symbol>

<symbol id="appstore" viewBox="0 0 700 700">
  <rect width="45%" height="50" rx="25" fill="#fff" transform="translate(220, 399) rotate(-59.55)" />
  <rect width="13%" height="50" rx="25" fill="#fff" transform="translate(163, 495) rotate(-59.55)" />
  <rect width="41.5%" height="50" rx="25" fill="#fff" transform="translate(395, 245) rotate(59.55)" />
  <rect width="15%" height="50" rx="25" fill="#fff" transform="translate(327, 128) rotate(59.55)" />
  <rect width="18%" height="50" rx="25" fill="#fff" transform="translate(437, 372)" />
  <rect width="39.5%" height="50" rx="25" fill="#fff" transform="translate(137, 372)" />
    
</symbol>


<symbol id="podcasts" viewBox="0 0 752 752">
 <g>
  <path fill="#fff" d="m376 311.55c-10.508 0.011719-20.582 4.1914-28.012 11.625-7.4336 7.4297-11.613 17.504-11.625 28.016 2.1797 52.613 77.145 52.613 79.324 0-0.023438-10.516-4.2148-20.59-11.656-28.02-7.4375-7.4297-17.516-11.609-28.031-11.621zm0 65.117c-6.7578 0-13.238-2.6836-18.016-7.4609-4.7773-4.7812-7.4609-11.262-7.4609-18.016 0-6.7578 2.6836-13.238 7.4609-18.02 4.7773-4.7773 11.258-7.4609 18.016-7.4609s13.238 2.6836 18.016 7.4609c4.7812 4.7812 7.4648 11.262 7.4648 18.02 0 6.7539-2.6836 13.234-7.4648 18.016-4.7773 4.7773-11.258 7.4609-18.016 7.4609z"/>
  <path fill="#fff" d="m424.07 403.09c-2.2891 2.7227-2.2148 6.7188 0.17969 9.3516 2.3945 2.6328 6.3633 3.0898 9.293 1.0664 17.293-16.113 27.121-38.684 27.133-62.32-4.7344-112.81-165.47-112.81-170.11 0 0.027344 23.645 9.8711 46.215 27.184 62.32 2.9297 2.0234 6.8984 1.5664 9.293-1.0664 2.3906-2.6328 2.4688-6.6289 0.17969-9.3516-13.902-13.09-21.945-31.227-22.32-50.32-0.375-19.09 6.9492-37.531 20.328-51.156 13.375-13.629 31.676-21.297 50.77-21.273 63.84-0.050782 94.719 79.324 48.07 122.75z"/>
  <path fill="#fff" d="m505.48 351.19c-0.046874-34.34-13.699-67.258-37.969-91.551-24.266-24.293-57.168-37.98-91.508-38.07-133.6 1.375-178.82 177.55-62.605 243.18 3.4375 1.8984 7.7656 0.64453 9.6602-2.793 1.8984-3.4414 0.64453-7.7656-2.793-9.6602-103.71-58.395-63.414-215.29 55.738-216.52 34.168 0.027343 66.562 15.191 88.473 41.406 21.906 26.219 31.074 60.793 25.031 94.422-6.0469 33.625-26.676 62.844-56.34 79.793-3.1992 2.0391-4.2344 6.2305-2.3477 9.5234 1.8867 3.293 6.0273 4.5195 9.4023 2.7891 19.801-11.371 36.258-27.758 47.715-47.512 11.457-19.754 17.508-42.176 17.543-65.008z"/>
  <path fill="#fff" d="m385.95 404.7h-20.27c-7.7461 0.027343-15.129 3.2891-20.363 9-5.2383 5.7148-7.8438 13.352-7.1992 21.074l6.1562 70.422h0.003907c0.57031 6.9023 3.7266 13.34 8.8359 18.02 5.1094 4.6758 11.797 7.2578 18.723 7.2227h7.957c6.9297 0.035156 13.617-2.5469 18.727-7.2227 5.1094-4.6797 8.2656-11.117 8.8359-18.02l6.1562-70.422c0.63281-7.7188-1.9805-15.348-7.2109-21.059-5.2305-5.707-12.605-8.9727-20.352-9.0156zm13.402 28.84-6.1562 70.328c-0.57031 6.9648-6.4141 12.316-13.402 12.266h-7.9062c-6.9883 0.050782-12.836-5.3008-13.402-12.266l-6.1562-70.324c-0.34766-3.7539 0.90234-7.4805 3.4453-10.266 2.5391-2.7852 6.1367-4.3711 9.9062-4.3711h20.27c3.7695 0.015625 7.3633 1.6016 9.9062 4.3828 2.5469 2.7812 3.8164 6.4961 3.4961 10.254z"/>
 </g>
</symbol>



<symbol id="health" viewBox="0 0 752 752">
  
  <defs>
    <linearGradient id="heartGradient" gradientTransform="rotate(90)">
      <stop offset="0%" stop-color="#fe5da6" />
      <stop offset="100%" stop-color="#fe2414" />
    </linearGradient>
  </defs>
 <path fill="url(#heartGradient)" d="m299.19 224.45c-55.117 0-88.941 48.199-88.941 87.738 0 85.488 97.164 164.84 165.75 215.36 68.586-50.516 165.75-129.87 165.75-215.36 0-39.535-33.824-87.738-88.941-87.738-30.781 0-57.078 24.543-76.812 47.855-19.734-23.316-46.031-47.855-76.812-47.855z"/>
</symbol>

<symbol id="home" viewBox="0 0 700 700" >
   <path fill="#fd9311" d="M 100 625 L 600 625 L 600 350 L 650 350 L 600 300 L 600 200 L 550 200 L 550 260 L 350 75 L 50 350 L 100 350 L 100 625 "> </path>
  <path fill="#feae28" d="M 125 600 L 575 600 L 575 325 L 350 115 L 125 325 L 125 575" ></path>
  <path fill="#ffbd40" d="M 125 600 L 575 600 L 575 325 L 350 115 L 125 325 L 125 575" transform="translate(70 80) scale(.8 .8)"></path>
   <path fill="#ffd160" d="M 125 600 L 575 600 L 575 325 L 350 115 L 125 325 L 125 575" transform="translate(140 160) scale(.6 .6)"></path>
     <path fill="#ffe680" d="M 125 600 L 575 600 L 575 325 L 350 115 L 125 325 L 125 575" transform="translate(210 240) scale(.4 .4)"></path>
</symbol>


<symbol id="wallet" viewBox="0 0 700 700">
   <rect fill="#dad6cc" width="560" height="420" rx="40" x="70" y="140" />
   <rect fill="#3a98c7" width="520" height="320" rx="30" x="90" y="160" class="box-shadow" />
     <rect fill="#fdaf04" width="520" height="220" rx="30" x="90" y="199" class="box-shadow" />
       <rect fill="#4dbf3c" width="520" height="220" rx="30" x="90" y="248" class="box-shadow" />
        <rect fill="#f06d5f" width="520" height="220" rx="30" x="90" y="297" class="box-shadow" />
  <path fill="#dad6cc" d="M 70 350 L 290 350 C 290 460 420 440 420 350 L 630 350 L 630 480 C 630 520 630 560 540 560 L 160 560 C 95 560 70 520 70 480 L 70 350 " /> </path>
</symbol>


<symbol id="settings" viewBox="0 0 752 752" >
  <defs>
    <linearGradient id="settingsGradient" gradientTransform="rotate(90)">
      <stop offset="20%" stop-color="#e4e5ed" />
      <stop offset="60%" stop-color="#908f94" />
    </linearGradient>
  </defs>
  <circle cx="378" cy="375" r="230" fill="#2e2e30" />
 <path d="m473.57 214.69c-0.92187 1.293-1.293 1.8516-1.293 1.8516l-4.625-2.7734-4.8125-2.5898c0.37109-0.55469 1.1094-2.0352 1.1094-2.0352l0.92188-3.1445 0.73828-4.2539 1.1094-6.1055v-7.5859c0-1.4766-7.5859-4.9961-7.5859-4.9961-1.4766 0.92188-6.6602 5.918-6.6602 5.918l-4.2539 4.4414-2.7734 3.6992-1.668 2.5898c-0.73828 1.668-1.1094 2.2227-1.1094 2.2227l-4.8125-2.0352-5.1797-1.668c0-0.55469 0.73828-2.2227 0.73828-2.2227l0.37109-3.1445v-4.625l-0.37109-5.918-1.1094-7.3984c-0.37109-1.4766-8.3242-3.6992-8.3242-3.6992-1.1094 1.1094-5.5508 7.0273-5.5508 7.0273l-3.5156 5.1797-2.0352 4.0664-1.1094 2.9609c-0.18359 1.4766-0.55469 2.2227-0.55469 2.2227l-5.1797-1.1094-5.5508-0.73828c0.18359-0.73828 0.18359-2.4062 0.18359-2.4062l-0.18359-3.1445-0.37109-4.4414-1.4766-5.918-2.4062-7.0273c-0.37109-1.668-9.0625-2.2227-9.0625-2.2227-0.55469 1.293-4.0664 7.957-4.0664 7.957l-2.4062 5.5508-1.4727 4.25-0.37109 3.1445c-0.37109 1.668-0.37109 2.2227-0.37109 2.2227h-5.5508l-5.1797 0.18359c0-0.73828-0.37109-2.4062-0.37109-2.4062l-0.55469-2.9609-1.4766-4.2539-2.4062-5.5508-3.5156-6.6602c-0.55469-1.4766-8.8789-0.73828-8.8789-0.73828-0.73828 1.668-3.1445 8.6953-3.1445 8.6953l-1.1094 5.918-0.74219 4.4414v3.1445 2.2227l-5.1797 0.92188-5.5508 1.1094c0-0.55469-0.37109-2.2227-0.37109-2.2227l-1.293-2.7734-2.0352-4.2539-3.1445-4.9961-4.9961-5.918c-0.92188-1.293-8.8789 1.1094-8.8789 1.1094-0.37109 1.4766-1.4766 8.8789-1.4766 8.8789l-0.37109 5.918 0.37109 4.8125 0.37109 2.9609c0.37109 1.668 0.73828 2.4062 0.73828 2.4062l-5.1797 1.668-4.8125 1.8516c-0.37109-0.37109-1.1094-2.0352-1.1094-2.0352l-1.8516-2.5898-2.5898-3.6992-4.2539-4.2539-5.5469-5.0039c-1.293-1.1094-9.0625 2.5898-9.0625 2.5898 0 1.4766 0.37109 9.0625 0.37109 9.0625l0.73828 5.7344 1.1094 4.625 0.92188 2.9609c0.73828 1.4766 1.1094 2.2227 1.1094 2.2227l-4.9961 2.5898-4.4414 2.7734c-0.37109-0.55469-1.293-1.8516-1.293-1.8516l-2.2227-2.4062-3.3281-2.9609-4.9961-3.6992-6.1055-4.0664c-1.4766-0.55469-8.3242 4.2539-8.3242 4.2539 0.37109 1.4766 1.668 8.8789 1.668 8.8789l2.0352 5.7344 1.8516 4.2539 1.293 2.5898c1.1094 1.668 1.4766 2.0352 1.4766 2.0352l-4.2539 3.3281-4.0664 3.6992c-1.8516-1.668-4.2539-3.5156-4.2539-3.5156l-3.8828-2.5898-5.5508-2.5898-6.8438-2.9609c-1.293-0.55469-7.2109 5.5508-7.2109 5.5508 0.37109 1.4766 3.3281 8.5117 3.3281 8.5117l2.7734 5.1797 2.4062 4.0664 1.8516 2.4062c1.668 1.4766-1.8516 5.7344-1.8516 5.7344l-3.3281 4.0664c-0.73828-0.37109-2.2227-1.1094-2.2227-1.1094l-2.5898-1.4766-4.2539-1.668-5.5508-2.0352-7.2109-1.4766c-1.8516-0.18359-6.6602 6.8438-6.6602 6.8438 0.73828 1.293 4.8125 7.5859 4.8125 7.5859l3.5156 4.8125 3.1445 3.3281 2.4062 2.0352c1.293 1.1094 1.668 1.4766 1.668 1.4766l-2.7734 4.625-2.4062 4.625c-0.73828-0.18359-2.0352-0.73828-2.0352-0.73828l-3.1445-1.1094-4.4414-0.92188-5.918-0.73828-7.3984-0.18359c-1.668 0-5.1797 7.5859-5.1797 7.5859 1.1094 1.293 5.918 6.6602 5.918 6.6602l4.625 4.2539 3.6992 2.7734 2.4062 1.4766c1.8516 0.92188 2.2227 1.1094 2.2227 1.1094l-1.8516 4.9961-1.668 5.1797c-0.73828-0.18359-2.4062-0.37109-2.4062-0.37109l-3.1445-0.55469-4.625-0.18359-5.7344 0.37109-7.7695 0.92188c-1.293 0.37109-3.3281 8.5117-3.3281 8.5117 0.91016 1.1133 6.8281 5.5547 6.8281 5.5547l5.1797 3.3281 4.2539 2.0352 2.7734 1.293c1.668 0.55469 2.0352 0.55469 2.0352 0.55469l-1.1094 5.3672-0.55469 5.3672c-0.73828-0.18359-2.5898-0.18359-2.5898-0.18359l-2.9609 0.18359-4.625 0.55469-5.918 1.293-6.8438 2.2227c-1.4766 0.73828-2.0352 9.0625-2.0352 9.0625 0.92188 0.92188 7.957 4.2539 7.957 4.2539l5.5508 2.4062 4.0664 1.293 3.1445 0.73828c1.668 0.18359 2.4062 0.18359 2.4062 0.18359l-0.37109 5.3672 0.37109 5.3672c-0.73828 0-2.4062 0.37109-2.4062 0.37109l-3.1445 0.73828-4.0664 1.293-5.5508 2.2227-6.6602 3.5156c-1.293 0.92188-0.73828 9.4336-0.73828 9.4336 1.4766 0.37109 8.6953 2.7734 8.6953 2.7734l5.918 1.1094 4.625 0.73828h2.9609c1.8516 0 2.5898-0.18359 2.5898-0.18359l0.55469 5.3672 1.1094 5.3672c-0.73828 0.18359-2.0352 0.73828-2.0352 0.73828l-3.1445 1.1094-3.8828 2.2227-5.1797 3.1445-5.918 4.625c-1.1094 1.1094 1.1094 9.25 1.1094 9.25 1.668 0.18359 8.8789 1.293 8.8789 1.293l5.918 0.18359 4.625-0.18359 3.1445-0.55469c1.668-0.37109 2.4062-0.55469 2.4062-0.55469l1.668 5.3672 2.0352 4.9961c-0.55469 0.18359-2.0352 0.73828-2.0352 0.73828l-2.7812 1.8438-3.5156 2.7734-4.4414 4.0742-5.1797 5.5508c-0.73828 1.293 2.7734 8.8789 2.7734 8.8789 1.668 0 9.0625-0.37109 9.0625-0.37109l5.918-0.73828 4.4414-0.92188 3.1445-0.92188c1.293-0.73828 2.0352-0.92188 2.0352-0.92188l2.4062 4.625 2.7734 4.625c-0.37109 0.37109-1.668 1.4766-1.668 1.4766l-2.4062 2.0352-2.7734 3.5156-3.8828 4.625-3.8828 6.4727c-0.92187 1.293 3.8828 8.3242 3.8828 8.3242 1.668-0.37109 9.0625-2.0352 9.0625-2.0352l5.918-1.8516 4.0664-1.668 2.7734-1.4766c1.4766-0.73828 1.8516-1.293 1.8516-1.293l3.3281 4.2539 3.5156 4.0664c-1.293 1.668-3.5156 4.0664-3.5156 4.0664l-2.4062 3.8828-2.7734 5.3672-2.7734 6.8438c-0.37109 1.668 5.5508 7.5859 5.5508 7.5859 1.4766-0.55469 8.3242-3.3281 8.3242-3.3281l5.5508-2.9609 3.8828-2.4062 2.4062-2.0352c1.668-1.4766 5.5508 2.0352 5.5508 2.0352l4.4414 3.5156c-0.37109 0.37109-1.293 1.8516-1.293 1.8516l-1.4766 2.7734-1.668 4.0664-1.8516 5.7344-1.668 7.3984c-0.37109 1.668 6.6602 6.4727 6.6602 6.4727 1.668-0.73828 7.957-4.8125 7.957-4.8125l4.4414-3.6992 3.5156-3.1445 2.0352-2.4062c1.1094-1.1094 1.4766-1.668 1.4766-1.668l4.4531 2.7852 4.8125 2.5898c-0.37109 0.55469-0.92187 2.0352-0.92187 2.0352l-0.73828 2.9609-1.1094 4.625-0.55469 5.7344-0.37109 7.5859c0 1.668 7.5859 5.1797 7.5859 5.1797 1.293-1.1094 6.8438-6.1055 6.8438-6.1055l3.8828-4.4414 2.7734-3.5156 1.8516-2.7734c0.55469-1.4766 0.92188-2.0352 0.92188-2.0352l5.1797 1.8516 4.9961 1.668c0 0.73828-0.37109 2.4062-0.37109 2.4062l-0.37109 3.1445-0.37109 4.625 0.37109 5.918 0.92188 7.3984c0.37109 1.4766 8.3242 3.6992 8.3242 3.6992 1.4766-1.293 5.918-7.2109 5.918-7.2109l3.1445-4.9961 2.0352-3.8828 1.1094-2.9609c0.73828-1.668 0.73828-2.4062 0.73828-2.4062l5.1797 1.1094 5.5508 0.92188c0 0.37109-0.37109 2.2227-0.37109 2.2227l0.37109 3.1445 0.73828 4.4414 0.92188 5.918 2.4062 7.0273c0.73828 1.668 9.0625 2.4062 9.0625 2.4062 1.1094-1.4766 4.2539-8.1406 4.2539-8.1406l2.4062-5.5508 1.293-4.4414 0.73828-2.9609v-2.4062l5.5508 0.18359 5.5508-0.18359v2.2227l0.73828 3.1445 1.293 4.4414 2.4062 5.5508 3.5156 6.4727c1.1211 1.4805 9.4492 0.74219 9.4492 0.74219 0.73828-1.668 2.7734-8.6953 2.7734-8.6953l1.293-5.918 0.37109-4.4414 0.37109-3.1445c-0.37109-1.668-0.37109-2.4062-0.37109-2.4062l5.5508-0.73828 5.1797-1.1094c0 0.55469 0.73828 2.2227 0.73828 2.2227l1.1094 2.9609 2.0352 3.8828 3.5156 4.9961 4.4414 5.918c1.1094 1.293 9.4336-0.73828 9.4336-0.73828 0.18359-1.8516 0.92188-9.0625 0.92188-9.0625l0.37109-6.1055-0.37109-4.4414-0.37109-3.1445c-0.37109-1.8516-0.37109-2.2227-0.37109-2.2227l4.9961-1.8516 5.1797-2.0352c0 0.73828 0.92187 2.0352 0.92187 2.0352l1.8516 2.7734 2.7734 3.5156 3.8828 4.4414 5.5508 4.9961c1.293 1.1094 8.8789-2.5898 8.8789-2.5898 0-1.668-0.37109-8.8789-0.37109-8.8789l-0.55469-6.1055-1.1016-4.6289-1.1094-2.7734c-0.55469-1.668-0.55469-2.2227-0.55469-2.2227l4.4414-2.5898 4.4414-2.7734c0.37109 0.55469 1.4766 1.8516 1.4766 1.8516l2.4062 2.4062 3.1445 2.9609 4.8125 3.5156 6.2891 4.0664c1.293 0.92188 8.3242-4.0664 8.3242-4.0664 0-1.668-1.668-8.8789-1.668-8.8789l-1.8516-5.7344-1.668-4.2539-1.8516-2.7734c-0.55469-1.293-0.92188-1.8516-0.92188-1.8516l4.0664-3.5156 3.8828-3.5156c1.668 1.668 4.0664 3.5156 4.0664 3.5156l4.2539 2.4062 5.1797 2.7734 7.0273 2.7734c1.293 0.55469 7.5859-5.3672 7.5859-5.3672-0.73828-1.4766-3.5156-8.5117-3.5156-8.5117l-2.7734-5.3672-2.4062-3.6992-2.0352-2.5898c-1.8516-1.668 2.0352-5.7344 2.0352-5.7344l3.1602-4.25c0.55469 0.55469 2.0352 1.4766 2.0352 1.4766l2.7734 1.293 4.2539 1.668 5.7383 1.8516 7.3984 1.668c1.293 0.18359 6.1055-6.6602 6.1055-6.6602-0.55469-1.668-4.8125-7.957-4.8125-7.957l-3.3281-4.625-3.1445-3.5156-2.4062-2.0352c-1.4766-1.1094-1.8516-1.293-1.8516-1.293l2.7734-4.625 2.4062-4.8125c0.73828 0.37109 2.2227 1.1094 2.2227 1.1094l2.9609 0.73828 4.625 1.1094 5.918 0.73828 7.5859 0.37109c1.293-0.18359 5.1797-7.957 5.1797-7.957-1.1094-1.1094-6.2891-6.6602-6.2891-6.6602l-4.4414-4.0664-3.5156-2.7734-2.7734-1.668c-1.293-0.73828-2.0352-1.1094-2.0352-1.1094l2.0352-4.9961 1.8516-4.9961c0.18359 0.18359 2.0352 0.55469 2.0352 0.55469l3.1445 0.37109h10.73l7.2109-1.1094c1.668-0.37109 3.8828-8.5117 3.8828-8.5117-1.4766-1.1094-7.3984-5.7344-7.3984-5.7344l-5.1797-3.1445-3.6992-2.0352-3.1445-1.293c-1.4766-0.37109-2.0352-0.55469-2.0352-0.55469l0.92188-5.3672 0.74609-5.3555c0.73828 0 2.4062 0.18359 2.4062 0.18359l3.1445-0.18359 4.4414-0.55469 5.918-1.293 7.0273-2.2227c1.668-0.73828 2.4062-9.0625 2.4062-9.0625-1.4766-0.73828-7.957-4.2539-7.957-4.2539l-5.5469-2.2227-4.625-1.4766-3.1445-0.73828c-1.668-0.18359-2.0352-0.18359-2.0352-0.18359v-10.918c0.37109 0 2.0352-0.18359 2.0352-0.18359l3.1445-0.55469 4.625-1.4766 5.5508-2.2227 6.4727-3.5156c1.4766-0.92188 0.37109-9.25 0.37109-9.25-1.293-0.73828-8.6953-2.7734-8.6953-2.7734l-5.5508-1.4766-4.8125-0.55469-3.1445-0.18359c-1.293 0.17188-2.0312 0.17188-2.0312 0.17188l-1.1094-5.3672-0.92188-5.1797c0.55469-0.18359 2.4062-0.73828 2.4062-0.73828l2.7734-1.1094 4.0664-2.0352 4.8125-3.3281 5.918-4.625c1.4766-1.1094-0.92188-9.0625-0.92188-9.0625-1.4766-0.37109-9.0625-1.4766-9.0625-1.4766l-5.918-0.18359-4.4414 0.18359-3.1445 0.37109c-1.668 0.37109-2.4062 0.73828-2.4062 0.73828l-1.8516-5.1797-1.668-5.1797c0.37109 0 2.0352-0.92188 2.0352-0.92188l2.4062-1.8516 3.8828-2.7734 4.0664-3.8828 5.3672-5.5508c0.92188-1.4766-2.7734-9.0625-2.7734-9.0625-1.4766 0-9.0625 0.37109-9.0625 0.37109l-5.918 0.92188-4.4414 0.92188-2.7734 0.92188c-1.8516 0.73828-2.2227 1.1094-2.2227 1.1094l-2.7773-5-2.7734-4.4414c0.37109-0.37109 1.8516-1.4766 1.8516-1.4766l2.4062-2.0352 3.1445-3.5156 3.3281-4.8125 4.2539-6.2891c0.73828-1.293-4.2539-8.1406-4.2539-8.1406-1.668 0-8.8789 1.8516-8.8789 1.8516l-5.5508 1.668-4.2539 1.8516-2.7734 1.4766c-1.668 0.92188-2.0352 1.293-2.0352 1.293l-3.5156-4.2539-3.3281-3.8828c1.668-1.8516 3.3281-4.2539 3.3281-4.2539l2.4062-4.0664 2.7734-5.1797 2.7734-6.8438c0.73828-1.668-5.5508-7.3984-5.5508-7.3984-1.293 0.18359-8.3242 3.1445-8.3242 3.1445l-5.1797 2.7734-3.6992 2.4062-2.7734 2.0352c-1.4766 1.668-5.5508-2.0352-5.5508-2.0352l-4.2539-3.1445c0.37109-0.55469 1.1094-2.0352 1.1094-2.0352l1.668-2.7734 1.668-4.2539 1.8516-5.7344 1.293-7.2109c0.37109-1.668-6.4727-6.4727-6.4727-6.4727-1.4766 0.73828-7.7695 4.8125-7.7695 4.8125l-4.8125 3.6992-3.3281 3.1445z" transform="scale(.65 .65) translate(205 205)" fill="url(#settingsGradient)" />

  
    <circle cx="378" cy="378" r="105" fill="#2e2e30" /> 
 <g>
  <path fill="url(#settingsGradient)" d="m575.23 394.14-3.9531-1.207-3.0391-0.71094c-0.09375-0.019531-0.15625-0.085937-0.24219-0.10937-0.089844-0.027344-0.17578-0.019532-0.26563-0.050782l-0.92187-0.37109c-0.0625-0.023437-0.097657-0.074218-0.15234-0.097656-0.22656-0.10938-0.41797-0.25391-0.60938-0.40234-0.17969-0.13281-0.35938-0.24609-0.50781-0.40625-0.15234-0.16016-0.25391-0.35547-0.37109-0.53906-0.125-0.20312-0.26172-0.38672-0.33594-0.60547-0.074219-0.19531-0.097656-0.40234-0.13281-0.60547-0.046874-0.25391-0.09375-0.49609-0.089843-0.75781 0.003906-0.0625-0.023438-0.11328-0.019531-0.17578l0.35547-4.2734v-4.8633c0-1.9609 1.5898-3.5508 3.5508-3.5508h0.625l2.6836-0.47266 4.1523-1.043 5.2383-1.918 5.1016-2.2812-0.15625-3.1953-5.1094-1.7461-0.003906-0.003907-5.4258-1.7461-4.1289-0.66406-2.9219-0.17188-0.79297-0.007812h-0.003906c-0.47266 0-0.92188-0.097657-1.3398-0.27344-0.14844-0.0625-0.26562-0.17188-0.40234-0.25391-0.24609-0.13672-0.49609-0.28125-0.70703-0.47266-0.12891-0.12891-0.21484-0.29297-0.31641-0.4375-0.16016-0.21484-0.33203-0.40625-0.44531-0.65234-0.082031-0.17969-0.097656-0.375-0.15234-0.56641-0.058594-0.21484-0.15234-0.40625-0.17188-0.63281l-0.35547-4.8203-0.71484-4.2969c-0.023437-0.14844 0.019531-0.28906 0.015625-0.42969-0.007812-0.24609-0.015625-0.47656 0.027344-0.70703 0.03125-0.22656 0.097656-0.42969 0.17969-0.64453 0.074218-0.21875 0.15625-0.41797 0.28125-0.61719 0.11719-0.19531 0.26172-0.35938 0.41016-0.53125 0.14844-0.16406 0.29688-0.31641 0.48828-0.46094 0.18359-0.14062 0.39453-0.25 0.60938-0.35156 0.13281-0.066406 0.23047-0.16406 0.375-0.21875l1.0547-0.35156 2.6055-1.043 0.003906-0.003906 3.9023-1.5977 4.8359-2.5898 4.6016-3.2578-0.48438-2.8945-5.2461-1.1797-5.9336-0.69531h-6.6797l-0.29297 0.11328c-0.082032 0.03125-0.16406 0.023438-0.24609 0.050781-0.082032 0.019532-0.13281 0.082032-0.21484 0.097657-0.28516 0.074219-0.56641 0.10547-0.85156 0.10547h-0.011719c-0.015625 0-0.023438-0.003907-0.023438-0.003907-0.375-0.003906-0.73047-0.070312-1.0703-0.17969-0.11328-0.039063-0.21875-0.097656-0.32812-0.15234-0.22656-0.097656-0.44531-0.20312-0.64844-0.34766-0.11328-0.085938-0.20703-0.1875-0.3125-0.28906-0.16406-0.15234-0.32031-0.30469-0.46094-0.49219-0.097657-0.12891-0.16406-0.28125-0.24609-0.41797-0.066406-0.11719-0.15625-0.22266-0.20703-0.35547-0.027344-0.070312-0.015625-0.13672-0.039063-0.20703-0.03125-0.089844-0.089843-0.15625-0.10938-0.25l-1.0859-4.3477-1.4414-4.4961c-0.023437-0.074219-0.003906-0.14844-0.023437-0.22266-0.027344-0.097657-0.085937-0.17578-0.097656-0.28125-0.027344-0.15625 0.019531-0.30859 0.019531-0.46875-0.007812-0.23828-0.015625-0.46094 0.023438-0.69141 0.039062-0.22656 0.10547-0.4375 0.1875-0.64844 0.082031-0.21484 0.15625-0.41797 0.28125-0.60547 0.11719-0.19922 0.26562-0.36328 0.42187-0.53516 0.14844-0.16016 0.29297-0.31641 0.47656-0.44922 0.19531-0.14844 0.41016-0.25391 0.64453-0.35938 0.13281-0.0625 0.23047-0.16016 0.375-0.20703 0.085938-0.027344 0.16016-0.003906 0.24609-0.027344 0.09375-0.023437 0.16016-0.082031 0.25391-0.097656l0.35938-0.0625 2.1367-1.4258c0.019531-0.015625 0.039062-0.015625 0.058594-0.023438 0.019531-0.007812 0.027344-0.027344 0.046875-0.042968l3.7031-2.2891 4.1914-3.3203 4.0508-3.7852-1.0859-2.8242-5.4258-0.26172-5.5742 0.33984-4.2539 0.71094c-0.042969 0.007812-0.085938 0.003906-0.125 0.007812 0 0-0.027344 0.007813-0.042969 0.015626l-2.7812 0.32812-0.76562 0.25391c-0.375 0.11719-0.75391 0.17969-1.1211 0.17969-0.36328 0-0.71875-0.0625-1.0664-0.16406-0.10938-0.039063-0.20703-0.10547-0.31641-0.15234-0.21875-0.09375-0.44141-0.17969-0.63281-0.31641-0.11328-0.082032-0.20703-0.1875-0.3125-0.28906-0.16016-0.13672-0.32812-0.28125-0.46484-0.44531-0.097656-0.13281-0.17188-0.29297-0.25391-0.44141-0.089844-0.15234-0.19531-0.28516-0.26172-0.44922l-1.5977-4.0664-2.1328-4.0898s-0.003907-0.023438-0.007813-0.039063l-0.019531-0.019531c-0.10547-0.21875-0.11719-0.44531-0.17969-0.67188-0.0625-0.22266-0.16406-0.4375-0.17969-0.66016-0.019531-0.26172 0.050781-0.49609 0.089843-0.75 0.027344-0.20312 0.015626-0.40625 0.074219-0.60156 0.074219-0.22266 0.22266-0.41016 0.33594-0.62109 0.10547-0.19531 0.17969-0.39844 0.32031-0.57422 0.14062-0.16406 0.34766-0.28125 0.51953-0.42188 0.18359-0.14844 0.33203-0.32812 0.55078-0.44531 0 0 0.023437-0.003906 0.03125-0.007812 0 0 0.015625-0.015625 0.023437-0.019532l0.80078-0.40234 2.0508-1.5742 3.2266-2.8828 3.7461-4.2812 3.293-4.0508-1.6211-2.6992-5.0898 0.39453-5.4492 1.3633-4.3438 1.4492-2.7734 0.92188-1.1094 0.37109-0.085938 0.015624c-0.33984 0.097657-0.69141 0.16406-1.0391 0.16406h-0.003906c-0.53906 0-1.0469-0.15625-1.5195-0.38672-0.097656-0.046875-0.18359-0.085937-0.28125-0.13672-0.45312-0.26953-0.84766-0.62891-1.1406-1.0859-0.023438-0.03125-0.0625-0.042969-0.082032-0.074219l-2.3203-3.7539-2.6758-3.5664c-0.09375-0.125-0.11719-0.27344-0.19531-0.40625-0.11719-0.21484-0.23828-0.42188-0.30859-0.64844-0.070312-0.21875-0.097656-0.42969-0.125-0.65234-0.027344-0.22656-0.050781-0.44531-0.039062-0.67578 0.019531-0.23047 0.074218-0.44141 0.12891-0.66406 0.0625-0.21875 0.11719-0.42578 0.22266-0.63281 0.097656-0.21484 0.24219-0.39844 0.38672-0.58594 0.097656-0.125 0.14062-0.26953 0.25391-0.37891l2.9883-2.9883 2.6445-3.3477 3.2734-4.4766 2.4492-4.8906-1.8984-2.4102-5.0977 1.4336-5.2734 1.9766-4.0312 1.9219-2.4219 1.293-0.67578 0.53516c-0.21484 0.16406-0.45312 0.26563-0.6875 0.375-0.10937 0.0625-0.21484 0.14063-0.33203 0.18359-0.38672 0.13672-0.79688 0.21875-1.2031 0.21875-0.50391 0-1.0039-0.11328-1.4727-0.32812-0.15234-0.070312-0.26953-0.20703-0.41797-0.29688-0.26172-0.17188-0.53906-0.30859-0.75781-0.55469l-6.2891-7.0312c-0.13281-0.15234-0.1875-0.33594-0.29297-0.50391-0.13281-0.20703-0.28906-0.40234-0.37109-0.63281-0.082032-0.20703-0.089844-0.42578-0.125-0.64062-0.042969-0.23047-0.097656-0.46094-0.097656-0.69141 0.007812-0.22266 0.082031-0.42969 0.12891-0.64844 0.046875-0.23047 0.074218-0.45312 0.16406-0.67188 0.09375-0.20703 0.25-0.38281 0.38672-0.57812 0.11328-0.17188 0.18359-0.35938 0.33594-0.51172l0.51953-0.51953 1.3867-2.0039 2.2383-3.7891 2.3164-5.3516 1.918-4.8672-2.4375-2.1523-4.4961 2.1211-5.0039 3.0391-3.6602 2.2695-2.0781 1.7578-0.64453 0.64453c-0.1875 0.1875-0.42969 0.29297-0.65234 0.42969-0.13672 0.09375-0.26172 0.20703-0.40625 0.28125-0.46484 0.20312-0.95312 0.33203-1.4531 0.33203h-0.003907c-0.41016 0-0.82422-0.09375-1.2227-0.24219-0.12891-0.046875-0.24609-0.12891-0.36328-0.1875-0.18359-0.09375-0.375-0.15234-0.53906-0.28516l-3.6992-2.7734c-0.015624-0.007813-0.023437-0.03125-0.023437-0.03125-0.039063-0.023438-0.0625-0.03125-0.082031-0.046876l-3.8828-3.1445c-0.14062-0.11328-0.21875-0.27344-0.33203-0.40234-0.085938-0.09375-0.19922-0.12891-0.27344-0.22656-0.058593-0.074219-0.066406-0.16406-0.11328-0.24609-0.13281-0.21484-0.22656-0.42578-0.3125-0.66016-0.082031-0.20703-0.15234-0.40625-0.1875-0.62109-0.042969-0.23047-0.039062-0.44922-0.039062-0.6875 0.007812-0.22266 0.015625-0.44141 0.0625-0.66016 0.046875-0.22266 0.12891-0.41797 0.21875-0.62891 0.09375-0.22266 0.19531-0.4375 0.33203-0.63281 0.050781-0.082031 0.066406-0.16406 0.125-0.24219 0.097656-0.11719 0.23047-0.17969 0.33594-0.28516 0.097656-0.097656 0.16016-0.22266 0.28125-0.30469l0.92187-2.1172 0.003907-0.007813 1.7031-4.0898 1.2305-5.2695 0.003907-0.007812 1.1992-5.2031-2.5898-1.8516-4.5 2.7812-4.2227 3.6953-0.03125 0.019532c-0.007813 0.007812-0.015626 0.019531-0.019532 0.023437l-3.2383 2.7227-1.8086 2.3008s-0.003906 0-0.007812 0.003906l-0.007813 0.023437-0.73828 0.92188c-0.20703 0.26172-0.49219 0.40234-0.74219 0.58594-0.15234 0.10547-0.26563 0.25391-0.42578 0.33594-0.50391 0.25391-1.0508 0.40625-1.6055 0.40625h-0.003907c-0.35547 0-0.70703-0.066406-1.0625-0.17578-0.10938-0.039062-0.21875-0.097656-0.33203-0.14844-0.15625-0.066406-0.31641-0.10938-0.47266-0.20703l-3.8359-2.3711-4.0586-2.4023c-0.17578-0.10547-0.28906-0.26562-0.44141-0.39453-0.17578-0.15234-0.37109-0.28906-0.51562-0.46875-0.13672-0.17969-0.22266-0.38281-0.32812-0.58594-0.10547-0.20312-0.22656-0.39453-0.29297-0.61719-0.066407-0.21484-0.066407-0.42969-0.089844-0.65234-0.023438-0.23047-0.066406-0.45312-0.042969-0.69141 0.023437-0.23047 0.11328-0.44922 0.18359-0.67578 0.058593-0.18359 0.066406-0.37891 0.15234-0.55859l0.17969-0.35938 0.64844-2.7422 0.88281-4.2383 0.69922-5.625 0.26562-5.3945-2.8086-1.2539-3.7773 3.5273-4.0859 4.4414-2.5664 3.0742-1.3203 2.2031-0.24609 0.74219c-0.003906 0.015625-0.019531 0.027344-0.019531 0.027344l-0.007813 0.050781c-0.070312 0.19531-0.1875 0.34766-0.28516 0.51562-0.085937 0.14062-0.14062 0.30469-0.24219 0.4375-0.12891 0.16406-0.29297 0.29297-0.44922 0.4375-0.11328 0.097656-0.20703 0.23047-0.33594 0.3125-0.17969 0.12891-0.38672 0.20703-0.59375 0.29297-0.125 0.0625-0.24219 0.13672-0.37109 0.18359-0.33984 0.10547-0.69922 0.16406-1.0742 0.16406s-0.75-0.0625-1.1211-0.17969l-0.039062-0.023437-0.042969-0.003906-4.625-1.668-0.082031-0.050781c-0.027344-0.007813-0.058594 0-0.085938-0.015626l-4.4414-1.8516c-0.20703-0.089844-0.35938-0.24609-0.53906-0.36328-0.20703-0.13672-0.44141-0.24219-0.60938-0.41016-0.14844-0.14844-0.22656-0.33594-0.34766-0.50781-0.14062-0.20703-0.30859-0.39453-0.40625-0.62109-0.085937-0.1875-0.089844-0.40234-0.13281-0.60547-0.058594-0.24219-0.13672-0.47266-0.14062-0.72266-0.003907-0.23047 0.085937-0.46484 0.12891-0.69531 0.042969-0.22266 0.03125-0.44531 0.11719-0.66406l0.19531-0.48438 0.30469-2.6055 0.34766-4.3203-0.35547-5.668-0.023438 0.023438-0.51953-5.3828-2.9688-0.79688-3.4414 4.3984-3.1172 4.5-2.0781 3.9922-0.93359 2.0039v0.13672c0 0.11719-0.058594 0.22266-0.070313 0.33203-0.007812 0.11328 0.027344 0.22266 0.003906 0.33594-0.027343 0.14062-0.10547 0.25391-0.14844 0.39453-0.0625 0.17578-0.11328 0.35156-0.20312 0.51562-0.11328 0.23828-0.26562 0.44531-0.42969 0.64453-0.10547 0.12891-0.20312 0.26562-0.32812 0.375-0.21484 0.19531-0.45313 0.33984-0.69922 0.47656-0.12891 0.070312-0.24219 0.16016-0.37891 0.21875-0.40625 0.15625-0.83984 0.26172-1.2891 0.26172h-0.007812c-0.21875 0-0.44531-0.019531-0.66797-0.066407l-4.7891-0.91797-4.5352-0.72266c-0.14062-0.023438-0.25391-0.10547-0.38672-0.14844-0.24219-0.066406-0.46875-0.13672-0.68359-0.25-0.19922-0.10547-0.37109-0.23047-0.53906-0.36328-0.18359-0.14062-0.35156-0.29297-0.50391-0.47266-0.14062-0.17187-0.26172-0.34766-0.36328-0.53906-0.11328-0.20312-0.21875-0.39844-0.29297-0.625-0.074219-0.21875-0.10547-0.44531-0.13281-0.68359-0.019531-0.14062-0.089844-0.27344-0.089844-0.42578v-1.1094l-0.003906-3.0195-0.33594-4.0391-1.2227-5.5938-1.4883-5.2695-2.8906-0.41016-2.5 4.7422v0.003906l-2.6797 5.3594-1.3086 3.6094-0.49609 2.8281c-0.019531 0.09375-0.070312 0.16406-0.09375 0.25391-0.023437 0.089844-0.003906 0.17188-0.03125 0.25391l-0.37109 1.1094c-0.03125 0.09375-0.097657 0.16016-0.13281 0.25391-0.0625 0.14844-0.13281 0.28125-0.21875 0.41797-0.13281 0.22656-0.28906 0.42969-0.46484 0.61719-0.097656 0.10547-0.19922 0.20703-0.3125 0.30469-0.20703 0.17188-0.44141 0.30859-0.6875 0.42969-0.11719 0.0625-0.22656 0.12891-0.35547 0.17578-0.375 0.13672-0.76562 0.22266-1.1758 0.22656-0.007812 0-0.019531 0.003906-0.019531 0.003906h0.003906c-0.097656 0-0.18359-0.003906-0.28516-0.007812l-4.5078-0.35938h-4.6406c-1.9609 0-3.5508-1.5898-3.5508-3.5508v-0.69922l-0.64844-2.75c-0.003906-0.019531 0-0.027344 0-0.027344l-0.019532-0.0625-0.86719-4.1484-2.0742-5.1875-2.0977-4.9922-3.0859 0.074219-1.875 5.1016-1.7305 5.5391-0.69141 4.1328-0.33594 2.8594v0.89062c0 0.16406-0.074219 0.3125-0.097656 0.47266-0.03125 0.24219-0.0625 0.47656-0.13672 0.69922-0.082031 0.21484-0.1875 0.39844-0.29688 0.59375-0.11328 0.19531-0.22656 0.38672-0.37891 0.5625-0.15234 0.16406-0.32812 0.29687-0.50781 0.44531-0.17969 0.13281-0.35156 0.26953-0.55469 0.37109-0.21484 0.10547-0.44141 0.16016-0.67578 0.22656-0.15625 0.042969-0.29297 0.13281-0.46094 0.15234l-4.4414 0.55469c-0.042969 0.003906-0.089844 0.003906-0.12891 0.007812 0 0-0.023437 0.007812-0.039062 0.007812l-4.8125 0.37109c-0.09375 0.003906-0.17969 0.007813-0.27344 0.007813h-0.019531c-0.40625-0.003907-0.79688-0.09375-1.168-0.22656-0.11719-0.042968-0.22656-0.10547-0.33984-0.16016-0.24609-0.11719-0.47656-0.26172-0.69141-0.4375-0.10937-0.089844-0.20703-0.17578-0.30469-0.28125-0.18359-0.18359-0.33984-0.40234-0.48438-0.64062-0.074219-0.11719-0.15625-0.23047-0.21484-0.36328-0.023437-0.046875-0.0625-0.082032-0.082031-0.12891l-0.37109-0.92188c-0.023437-0.0625-0.015625-0.125-0.03125-0.17969-0.027343-0.085937-0.082031-0.13672-0.097656-0.22266l-0.66016-2.457-1.8516-3.8633-2.6758-5-2.9375-4.5469-3.1719 0.60156-1.1836 5.1367-0.69531 5.9258v3.9961l0.34766 2.9492c0.007812 0.074219-0.023438 0.13672-0.019531 0.21484 0.003906 0.074219 0.042969 0.12891 0.042969 0.20312v1.1094c0 0.11719-0.058594 0.22266-0.070313 0.33594-0.023437 0.24609-0.070313 0.46875-0.13672 0.69531-0.070312 0.21875-0.14844 0.41797-0.25391 0.61719-0.10938 0.19922-0.23047 0.38281-0.375 0.55859-0.14062 0.17578-0.29297 0.33203-0.46875 0.47656-0.17188 0.14062-0.35156 0.26562-0.55469 0.375-0.20703 0.11328-0.41797 0.20312-0.64844 0.28125-0.10938 0.039062-0.19922 0.10938-0.31641 0.13672l-4.2852 0.89063-4.3672 1.3984s-0.007813 0.003906-0.015625 0.007813c-0.007812 0.003906-0.019531 0.003906-0.019531 0.003906l-0.023438 0.003906c-0.35938 0.11328-0.72266 0.17188-1.0859 0.17188-0.375 0-0.74219-0.0625-1.0898-0.17578-0.046875-0.015625-0.089844-0.046875-0.13281-0.066406-0.29297-0.10938-0.58594-0.24219-0.84375-0.42578-0.0625-0.042968-0.097657-0.10547-0.15625-0.15234-0.22656-0.18359-0.44922-0.38281-0.62891-0.625-0.050781-0.066406-0.070312-0.14844-0.11328-0.21484-0.15234-0.24219-0.30469-0.49219-0.40234-0.77344l-0.30859-0.92969-1.0508-2.25-2.5352-3.3828-3.4141-4.4883-3.7695-4.0352-2.8242 1.0859-0.26562 5.4258 0.35156 5.6211 0.69922 4.3867 0.48828 2.7578 0.23828 0.58594c0.089844 0.21875 0.082031 0.44141 0.11719 0.66406 0.046875 0.23828 0.13281 0.47266 0.12891 0.69531-0.003906 0.25391-0.089844 0.48828-0.14062 0.72266-0.046875 0.20312-0.050781 0.41797-0.13281 0.60547-0.097657 0.22656-0.26563 0.41016-0.40625 0.62109-0.11719 0.17188-0.19922 0.35938-0.34766 0.50781-0.17188 0.17188-0.40234 0.27344-0.60938 0.41016-0.17969 0.11719-0.33203 0.28125-0.53906 0.36328l-4.3477 1.8242-4.1836 2c-0.49219 0.23828-1.0117 0.34766-1.5234 0.34766-0.64453 0-1.2695-0.17969-1.8125-0.50781-0.015625-0.003906-0.027344-0.007812-0.027344-0.007812-0.55078-0.33203-1-0.81641-1.3086-1.4102l-0.03125-0.039062-0.39844-0.80078-1.5781-2.0508-2.8594-3.1953-4.2539-3.543s-0.003906-0.003906-0.003906-0.007812l-4.0391-3.2734-2.6562 1.4336 0.64453 5.043 1.0625 5.6562 1.2109 4.3203 1.0312 2.5781 0.37109 0.92188c0.050781 0.12891 0.039062 0.26562 0.074219 0.39453 0.0625 0.23047 0.10937 0.46094 0.125 0.69141 0.019531 0.23047 0.003906 0.45312-0.027344 0.67578-0.027344 0.22266-0.066406 0.4375-0.13672 0.64844-0.070313 0.22266-0.16406 0.42187-0.28125 0.625-0.10938 0.19531-0.22656 0.37109-0.37109 0.53906-0.15625 0.18359-0.33203 0.33984-0.52734 0.49219-0.097657 0.085937-0.17188 0.20312-0.28906 0.27344l-3.75 2.3203-3.5703 2.6758c-0.125 0.09375-0.26562 0.12891-0.39453 0.20312-0.11719 0.074218-0.23047 0.13672-0.35547 0.1875-0.44922 0.1875-0.91016 0.31641-1.3789 0.31641h-0.007812c-0.46875 0-0.92969-0.12891-1.3789-0.31641-0.125-0.050782-0.23828-0.11328-0.35547-0.1875-0.12891-0.074219-0.26953-0.10938-0.39453-0.20312l-0.73828-0.55469c-0.070312-0.058593-0.097656-0.12891-0.16406-0.18359-0.066406-0.0625-0.15234-0.085938-0.21484-0.14063l-2.2969-2.2969-3.2773-2.7656-4.4844-3.0977-4.7578-2.5156-2.4453 1.7305 1.3438 5.3945 1.8984 5.1875 1.8477 3.6875 1.7305 2.5938c0.089844 0.12891 0.10547 0.28906 0.17188 0.42578 0.074219 0.14844 0.1875 0.26172 0.24609 0.42188l0.37109 1.1094c0.0625 0.17578 0.03125 0.35156 0.066406 0.53125 0.046876 0.27344 0.11719 0.54297 0.097657 0.82422-0.019531 0.25-0.11328 0.48438-0.18359 0.71875-0.058594 0.20312-0.074219 0.40625-0.16016 0.59766-0.16406 0.33594-0.41016 0.625-0.67578 0.89844-0.0625 0.058594-0.085938 0.13672-0.14844 0.19531l-0.015625 0.007812c-0.003906 0.007812-0.015625 0.015625-0.015625 0.015625l-3.3984 3.0469-3.0859 3.0859c-0.17969 0.17969-0.39844 0.26953-0.60156 0.40234-0.13672 0.089844-0.26172 0.19922-0.40625 0.26953-0.47656 0.22656-0.98437 0.37109-1.5 0.37109h-0.003906c-0.40234 0-0.80078-0.09375-1.1875-0.23047-0.11719-0.046876-0.23047-0.10547-0.34766-0.16016-0.14062-0.070312-0.29297-0.11328-0.42969-0.19922l-1.1094-0.74219c-0.03125-0.023437-0.046876-0.050781-0.074219-0.074219-0.039063-0.027344-0.085938-0.039062-0.11719-0.066406l-2.2383-1.7188-3.6992-2.1875-5.0156-2.25-5.3555-1.7852-1.8477 2.1016 2.043 4.75 2.9297 5.0117 2.6484 3.5234c0.015625 0.023438 0.019531 0.042969 0.03125 0.066407 0.015625 0.019531 0.03125 0.027343 0.046875 0.046875l1.4766 2.1328 0.51953 0.51953c0.097656 0.097656 0.14062 0.23828 0.23047 0.34766 0.14844 0.1875 0.28516 0.37891 0.39453 0.59375 0.097656 0.20312 0.17188 0.40625 0.23047 0.625 0.066407 0.21875 0.10938 0.42969 0.12891 0.66016 0.019531 0.22656 0.003906 0.44922-0.019531 0.67578-0.023438 0.22266-0.0625 0.4375-0.12891 0.65234-0.070312 0.23047-0.17188 0.4375-0.29297 0.65234-0.066406 0.125-0.085937 0.26172-0.16406 0.375l-2.7734 3.8828s-0.023437 0.015625-0.03125 0.027344c0 0-0.007812 0.027344-0.019531 0.042969l-2.7734 3.6992c-0.1875 0.25391-0.46094 0.39453-0.69531 0.57813-0.15234 0.11719-0.26953 0.27344-0.44141 0.36328-0.53125 0.29297-1.1016 0.47656-1.7031 0.47656-0.47656 0-0.94531-0.13281-1.4023-0.33203-0.058594-0.023438-0.11719-0.007812-0.17969-0.042969l-1.1094-0.55469-0.042969-0.03125c-0.007813-0.003906-0.027344 0-0.042969-0.007813l-2.6133-1.3906-3.6797-1.5078-5.5273-1.3828-5.4258-0.97266-1.625 2.3398 3.0859 4.5664 3.3008 4.5195 3.082 2.9141c0.015626 0.007812 0.015626 0.027343 0.015626 0.027343s0.046874 0.027344 0.0625 0.042969l1.9023 1.9023 0.55469 0.33203c0.19531 0.11328 0.31641 0.29297 0.48828 0.44141 0.17578 0.16016 0.38281 0.29297 0.51953 0.48438 0.14844 0.19531 0.21875 0.42578 0.32031 0.64844 0.089844 0.19531 0.21484 0.37109 0.26953 0.57422 0.0625 0.23828 0.042969 0.48438 0.058594 0.73047 0.015625 0.20703 0.0625 0.41016 0.03125 0.625-0.027344 0.23828-0.14062 0.45313-0.22266 0.68359-0.070312 0.20703-0.089843 0.42578-0.19922 0.62109l-2.4062 4.2539-0.015625-0.023437-2.0117 3.6562c-0.023438 0.046875-0.082031 0.066406-0.10547 0.10547-0.29297 0.49219-0.6875 0.89062-1.1523 1.1797-0.082032 0.046875-0.15625 0.082031-0.23828 0.11719-0.49609 0.26172-1.0469 0.4375-1.6211 0.4375h-0.011718c-0.36328 0-0.73828-0.066406-1.1094-0.17969l-0.89062-0.29297-2.8594-0.50391c-0.027344-0.003906-0.050781-0.027344-0.082031-0.027344-0.058594-0.015625-0.10938-0.007812-0.16406-0.023437l-4.2344-1.0625-5.5156-0.69141-5.4453-0.13281-1.2031 2.6172 3.5234 4.0586 4.1875 3.8398 3.3242 2.6289 2.2461 1.4922 0.66797 0.22266c0.046875 0.015625 0.074219 0.050781 0.11719 0.070313 0.039062 0.015624 0.082031 0.007812 0.11719 0.023437 0.17969 0.074219 0.30469 0.21484 0.46484 0.30859 0.20703 0.12891 0.42969 0.24219 0.60156 0.40625 0.16406 0.15625 0.28125 0.35156 0.41016 0.53125 0.13281 0.1875 0.28125 0.35938 0.375 0.56641 0.09375 0.20312 0.125 0.42188 0.17578 0.64062 0.058594 0.22656 0.125 0.44531 0.13672 0.67578 0.007812 0.23047-0.050782 0.44922-0.085938 0.67578-0.03125 0.20313-0.007812 0.39844-0.074218 0.59766-0.019532 0.050781-0.050782 0.089843-0.074219 0.13672-0.015625 0.03125-0.003907 0.070312-0.003907 0.070312l-1.8359 4.4062-1.6484 4.3945c-0.003907 0.015625-0.015626 0.027344-0.023438 0.039063l-0.003906 0.03125c-0.070313 0.17969-0.1875 0.31641-0.28516 0.48828-0.089844 0.13672-0.15234 0.29297-0.25391 0.42578-0.12891 0.16016-0.29297 0.28516-0.44922 0.41797-0.10937 0.097656-0.20703 0.21484-0.32812 0.29297-0.18359 0.125-0.39453 0.19922-0.59375 0.28906-0.11719 0.050782-0.22656 0.12891-0.35156 0.16406-0.33203 0.097656-0.6875 0.15625-1.043 0.15625-0.41797 0-0.83984-0.074219-1.25-0.22656l-0.03125-0.023437h-0.023437l-0.40234-0.15625-2.4023-0.15234-0.015625-0.003906h-0.023437l-4.5703-0.35156-5.6797 0.35547h-0.015625l-5.1211 0.39453-0.96484 3.1211 4.207 3.1523 4.9922 3.3906 3.418 1.875 2.832 1.2422h0.003906l0.81641 0.32812c0.125 0.050781 0.20312 0.15234 0.31641 0.20703 0.21875 0.11328 0.41797 0.23828 0.60156 0.38672 0.17578 0.14844 0.32031 0.30469 0.46875 0.47656 0.14062 0.17578 0.26562 0.35156 0.375 0.55078 0.10938 0.20312 0.19531 0.40625 0.26562 0.63281 0.066407 0.20703 0.10938 0.41016 0.13281 0.63281 0.03125 0.24219 0.027344 0.47656 0.003906 0.71875-0.015625 0.12891 0.027344 0.25391 0 0.38281l-0.89844 4.5078-0.73828 4.4414c-0.027343 0.16406-0.11328 0.29688-0.16016 0.45312-0.058594 0.17969-0.10547 0.35156-0.18359 0.51562-0.11719 0.24219-0.27344 0.44922-0.44531 0.66016-0.10547 0.12891-0.19922 0.26562-0.31641 0.37891-0.21484 0.19531-0.46094 0.33984-0.71094 0.48438-0.12891 0.070312-0.23828 0.16016-0.375 0.21875-0.41016 0.16016-0.84766 0.26562-1.3008 0.26562h-1.1133l-3.0117 0.011718-4.0391 0.33594-5.5312 1.1914-5.2148 1.6055-0.30469 3.1484 4.5234 2.5117 5.2539 2.4531 3.707 1.1797 3.0273 0.71094c0.058593 0.015625 0.097656 0.058594 0.14844 0.070313 0.058594 0.015625 0.10938 0.003906 0.16016 0.019531l1.1094 0.37109c0.097656 0.03125 0.16016 0.10547 0.26172 0.14844 0.21875 0.097656 0.41016 0.21875 0.60547 0.34766 0.18359 0.13281 0.36328 0.26172 0.51953 0.42188 0.15625 0.16016 0.28516 0.33594 0.40234 0.52734 0.12891 0.19531 0.24609 0.37891 0.33203 0.59766 0.085938 0.19922 0.12891 0.40234 0.17578 0.62109 0.050782 0.24219 0.085938 0.48438 0.085938 0.73438 0 0.09375 0.042969 0.17969 0.03125 0.27344l-0.35547 4.2734v4.6797c0 1.9609-1.5898 3.5508-3.5508 3.5508h-0.69141l-2.75 0.64453h-0.015625l-4.1914 1.0508-5.2344 1.918-4.7344 2.2383 0.16016 3.3359 4.9648 1.6133h0.015626l5.3359 1.6016 4.1406 0.69141 2.8594 0.33203h0.69922c0.15625 0 0.28906 0.070313 0.4375 0.089844 0.21484 0.027344 0.40625 0.0625 0.60547 0.125 0.26563 0.085937 0.50391 0.19531 0.73828 0.33203 0.14844 0.09375 0.29297 0.17969 0.42578 0.28906 0.21484 0.17578 0.38672 0.35938 0.55469 0.57812 0.125 0.15234 0.23047 0.30859 0.32813 0.48828 0.11328 0.22266 0.19531 0.44531 0.26953 0.69141 0.039062 0.12891 0.125 0.24219 0.14844 0.37891l0.73828 4.4414v0.019531l0.003906 0.023437 0.73828 4.8125c0.023437 0.13672-0.023437 0.26563-0.019531 0.40234 0.007812 0.24609 0.007812 0.48438-0.03125 0.71484-0.039063 0.22656-0.097656 0.42969-0.17969 0.64453-0.082031 0.21484-0.16406 0.41016-0.28906 0.60547-0.11328 0.19922-0.25391 0.36328-0.41016 0.53516-0.14844 0.16016-0.30469 0.3125-0.48828 0.44922-0.1875 0.14062-0.39453 0.25-0.61719 0.35156-0.125 0.066406-0.22266 0.16016-0.35547 0.20703l-1.0938 0.36328-2.8516 1.0703-4 1.5664-4.8555 2.5938-4.4688 3.0273 0.75781 3.1055 5.2773 1.1836 5.5273 0.69141h4l2.9492-0.34766c0.074218-0.003906 0.13281 0.023437 0.20312 0.019531 0.074219-0.003906 0.13672-0.042968 0.21484-0.042968h1.1094c0.082031 0 0.14062 0.039062 0.21875 0.046874 0.25391 0.015626 0.49219 0.074219 0.73047 0.14844 0.20703 0.058594 0.41016 0.097656 0.60156 0.19531 0.21484 0.10547 0.39453 0.25 0.57813 0.39453 0.17578 0.13281 0.34766 0.25391 0.49219 0.42188 0.15234 0.16406 0.26562 0.35938 0.37891 0.55859 0.125 0.20313 0.24219 0.39844 0.31641 0.625 0.027343 0.074219 0.085937 0.12891 0.10547 0.20703l1.293 4.625s0 0.039062 0.003906 0.0625c0.003907 0.007812 0.015625 0.023437 0.019531 0.039062l1.1094 4.4414c0.027343 0.10547-0.003907 0.20703 0.015624 0.3125 0.039063 0.25 0.046876 0.48438 0.03125 0.72266-0.007812 0.22266-0.03125 0.42969-0.085937 0.64844-0.058594 0.22266-0.13281 0.42578-0.23047 0.63281s-0.19531 0.39844-0.32812 0.58203c-0.12891 0.18359-0.28125 0.33594-0.44531 0.49219-0.17578 0.16406-0.35547 0.30859-0.5625 0.44141-0.09375 0.058594-0.15234 0.14844-0.25391 0.20312l-0.73828 0.36328s-0.027343 0.003906-0.042969 0.007812l-0.042968 0.03125-2.4844 1.1602-3.582 2.5586-4.6406 3.3945-4.0156 3.7461 1.0859 2.8242 5.4258 0.26172 5.6445-0.35156 4.332-0.51562 2.7031-0.64063 0.66406-0.26562 0.058594-0.007813c0.023438-0.007813 0.039062-0.027344 0.039062-0.027344 0.28906-0.10547 0.55469-0.097656 0.82422-0.12891 0.17188-0.019531 0.33984-0.085937 0.51172-0.082031 0.30469 0.007812 0.58203 0.097656 0.875 0.1875 0.15234 0.042968 0.30859 0.050781 0.45312 0.11328 0.23828 0.10547 0.42969 0.28125 0.64062 0.4375 0.16016 0.11719 0.33984 0.20312 0.48438 0.35156 0.17188 0.17969 0.28125 0.41797 0.41016 0.62891 0.10547 0.17578 0.25 0.30859 0.32812 0.50391 0.007813 0.019531 0.003906 0.039062 0.003906 0.039062 0.015626 0.042969 0.03125 0.058594 0.03125 0.058594l1.5859 4.3984 2.0781 3.8203c0.03125 0.066406 0.027344 0.12891 0.0625 0.19531 0.10547 0.23047 0.16016 0.46484 0.21875 0.71094 0.050781 0.20703 0.10938 0.40625 0.11719 0.62109 0.015626 0.23047-0.027343 0.45312-0.0625 0.6875-0.03125 0.22266-0.058593 0.4375-0.12891 0.64844-0.070312 0.20312-0.1875 0.38281-0.29297 0.57422-0.125 0.21875-0.24219 0.42578-0.40625 0.61719-0.046876 0.050781-0.0625 0.11328-0.10938 0.16406l-0.73828 0.73828c-0.10547 0.10547-0.24219 0.14844-0.35547 0.23828-0.11719 0.09375-0.19531 0.22266-0.32812 0.29688l-2.4062 1.4453-2.7734 2.7734-3.9219 4.2773-3.3164 4.2422 1.4766 2.6758 4.9883-0.50781 5.5703-1.3984h0.003906l4.4062-1.2305 2.3672-1.0195c0.13281-0.058594 0.27344-0.046875 0.40625-0.085937 0.14062-0.046875 0.26562-0.12891 0.41016-0.15625l1.1094-0.18359c0.13672-0.023437 0.27344 0.023437 0.41016 0.019531 0.32812-0.019531 0.65234-0.039062 0.96484 0.039063 0.074219 0.019531 0.12891 0.066406 0.19922 0.085937 0.37109 0.10938 0.73047 0.25391 1.0547 0.48438 0.050782 0.039063 0.089844 0.097657 0.13672 0.13672 0.29297 0.23047 0.57812 0.48438 0.78906 0.80859l2.3906 3.6758 2.6992 3.7852c0.13281 0.19531 0.17969 0.41016 0.28125 0.62109 0.097657 0.20703 0.22656 0.40625 0.28516 0.62891 0.050781 0.22266 0.023437 0.45312 0.03125 0.68359 0.007812 0.22656 0.058593 0.45312 0.019531 0.68359-0.03125 0.21484-0.14062 0.41016-0.21875 0.62109-0.074219 0.22266-0.11719 0.45313-0.24219 0.66016-0.11328 0.1875-0.30469 0.33594-0.46094 0.50781-0.15234 0.16406-0.26562 0.36328-0.45312 0.50781l-0.37109 0.28125-1.7422 2.2227c-0.03125 0.042969-0.085938 0.058594-0.11719 0.09375-0.039062 0.046875-0.050781 0.10938-0.09375 0.15234l-2.8594 3.0312-2.7695 4.668-0.003906 0.007813-0.003907 0.003906-2.7695 4.6133 2.0547 2.6797 4.668-1.3867 5.6641-2.125 3.8711-1.8516 2.1602-1.4922c0.13672-0.097656 0.29688-0.11719 0.44922-0.19922 0.15625-0.074218 0.28125-0.19531 0.44922-0.25391l1.1094-0.37109 0.046875-0.003906c0.28906-0.09375 0.58594-0.09375 0.88672-0.10547 0.16406-0.007813 0.32812-0.070313 0.49219-0.050782 0.1875 0.007813 0.35938 0.097656 0.53906 0.14844 0.26172 0.066406 0.52734 0.097656 0.76172 0.21875 0.097656 0.050781 0.17188 0.14062 0.26562 0.20312 0.29688 0.1875 0.59375 0.38281 0.82812 0.66016 0.003906 0.003906 0.019531 0.007813 0.019531 0.007813l2.918 3.4648 3.0586 3.2383c0.09375 0.097657 0.12891 0.22656 0.21484 0.33594 0.14844 0.19531 0.28125 0.38672 0.37891 0.60938 0.097656 0.20312 0.16406 0.41016 0.22266 0.62891 0.058594 0.22266 0.09375 0.42969 0.10547 0.66016 0.015626 0.23047-0.003906 0.45312-0.03125 0.6875-0.03125 0.21875-0.074218 0.42578-0.14844 0.64062-0.074219 0.23047-0.17969 0.4375-0.30469 0.64844-0.070313 0.11719-0.09375 0.25-0.17578 0.36328l-0.55469 0.73828s-0.007813 0.003907-0.015625 0.007813c-0.003906 0.003906-0.003906 0.015625-0.003906 0.015625l-1.6914 2.207-2.2266 3.9336-2.2539 4.8438-1.7773 5.3281 2.3438 2.0547 4.8594-2.2305 4.9375-2.8281 3.4805-2.3203 1.7852-1.7852c0.089843-0.089844 0.19922-0.11328 0.29297-0.19531 0.09375-0.082031 0.14844-0.17969 0.25-0.25l1.1094-0.73828c0.046876-0.03125 0.097657-0.03125 0.14063-0.0625 0.21484-0.12891 0.44531-0.19531 0.68359-0.28125 0.20703-0.070312 0.40234-0.16016 0.61719-0.19531 0.21875-0.03125 0.42969-0.003907 0.65234 0.003906 0.23828 0.003906 0.46875-0.003906 0.69531 0.050781 0.19922 0.046875 0.37891 0.15234 0.57422 0.23828 0.23047 0.097656 0.46484 0.1875 0.67188 0.33594 0.046875 0.03125 0.097656 0.039063 0.13672 0.070313l3.5156 2.7734v0.003906l3.6328 2.7188c0.10547 0.085938 0.16016 0.19922 0.26172 0.28906 0.17578 0.16406 0.33203 0.33594 0.47266 0.53125 0.13281 0.1875 0.23828 0.375 0.32812 0.57812 0.09375 0.21484 0.16406 0.41797 0.22266 0.64062 0.050781 0.22266 0.074219 0.4375 0.085938 0.66016 0.007812 0.23047 0.003906 0.44922-0.03125 0.68359-0.039063 0.23828-0.097657 0.44922-0.18359 0.67578-0.046875 0.125-0.042969 0.25391-0.097656 0.37891l-0.55469 1.1094-0.023437 0.027344c-0.007813 0.019531-0.007813 0.039062-0.019532 0.058594l-1.3633 2.5586-1.3555 3.7266-1.5664 5.5703-0.94531 5.3984 2.3047 1.6758 4.6367-3.0039 4.4961-3.2773 2.8555-2.8594 1.793-2.1172 0.63281-0.95312c0.10938-0.16406 0.28125-0.26953 0.41016-0.41016 0.16016-0.17188 0.29688-0.35547 0.48828-0.48828 0.20703-0.14844 0.44141-0.23828 0.67188-0.33203 0.18359-0.085937 0.35547-0.17969 0.55078-0.23047 0.24609-0.058594 0.49219-0.050781 0.75-0.058594 0.20312-0.007812 0.40234-0.039062 0.60547-0.003906 0.23828 0.03125 0.46094 0.13672 0.69141 0.22266 0.17969 0.070313 0.37109 0.082032 0.53906 0.17578l4.2539 2.4062c0.03125 0.019531 0.046875 0.050781 0.074219 0.070312 0 0 0.058594 0.007813 0.085938 0.027344l4.0664 2.5898 0.019531 0.019531 0.046875 0.023437c0.20312 0.13281 0.32812 0.32813 0.49219 0.49219 0.16016 0.15625 0.35156 0.29297 0.47656 0.47656 0.12891 0.1875 0.18359 0.41016 0.27344 0.625 0.09375 0.21484 0.21484 0.40625 0.26172 0.62891 0.042969 0.20312 0.007813 0.41797 0.019532 0.62891 0.003906 0.24609 0.046874 0.48828 0 0.73047-0.039063 0.22266-0.16016 0.42578-0.24609 0.64062-0.085938 0.21484-0.11328 0.4375-0.24609 0.64062-0.003906 0.007812-0.019531 0.015625-0.019531 0.015625l-0.023438 0.050781-0.070312 0.097656-0.76172 2.6094-1.0312 4.1094-0.69141 5.5742-0.26562 5.4688 2.9609 1.1797 3.8398-3.5625 3.8516-4.207 2.6289-3.3242 1.4922-2.2461 0.22266-0.66797c0.015626-0.046875 0.050782-0.074219 0.070313-0.11719 0.015625-0.042968 0.007813-0.082031 0.023437-0.11719 0.070313-0.17188 0.20313-0.28516 0.29297-0.4375 0.13281-0.22656 0.25391-0.45312 0.42969-0.64062 0.13672-0.14062 0.30859-0.24609 0.46875-0.35938 0.20703-0.15234 0.40234-0.30859 0.63281-0.41797 0.19922-0.089844 0.40625-0.11719 0.61719-0.17188 0.22656-0.058593 0.44531-0.12891 0.68359-0.13672 0.24609-0.007812 0.48438 0.046876 0.72266 0.085938 0.18359 0.03125 0.37109 0.007812 0.55469 0.070312 0.046875 0.015626 0.074219 0.050782 0.11719 0.070313 0.039062 0.015625 0.082031 0.007813 0.11719 0.023437l4.3711 1.8242 4.3945 1.6484c0.19922 0.074219 0.33984 0.21875 0.51562 0.32031 0.21484 0.125 0.44531 0.22656 0.62109 0.38672 0.17188 0.15234 0.28125 0.35156 0.41016 0.53125 0.13672 0.18359 0.29688 0.35156 0.39844 0.55859 0.09375 0.19922 0.11328 0.41016 0.17578 0.625 0.0625 0.23047 0.14844 0.44922 0.16016 0.69141 0.015625 0.21875-0.050781 0.44141-0.082031 0.66406-0.027344 0.22266-0.007813 0.44531-0.085937 0.67188l-0.25391 0.76562-0.3125 2.6797-0.17578 4.0898 0.17969 5.7344 0.54297 5.3008 3.0195 0.83203 3.2969-4.082 3.2188-5.1914 2.1016-3.5 1.1172-2.4062 0.30859-0.92969c0.070313-0.21484 0.21875-0.375 0.31641-0.55859 0.097657-0.17187 0.16406-0.35156 0.28906-0.49609 0.19531-0.24219 0.42578-0.42578 0.67188-0.60938 0.11328-0.085938 0.21484-0.18359 0.33594-0.26172 0.25391-0.14844 0.53125-0.22656 0.82031-0.30469 0.16016-0.046876 0.3125-0.10938 0.48828-0.13281 0.24609-0.03125 0.49219 0 0.74219 0.023437 0.17969 0.007813 0.35547-0.027343 0.53516 0.015626l4.4883 1.0781 4.3281 0.71875c0.14844 0.023438 0.26172 0.10938 0.39844 0.15234 0.22656 0.066406 0.44531 0.13672 0.64844 0.24609 0.20703 0.10938 0.38672 0.24219 0.5625 0.38281 0.17578 0.13672 0.33203 0.28516 0.48438 0.45313 0.14844 0.17578 0.26953 0.36328 0.37891 0.5625 0.10937 0.19531 0.20312 0.38281 0.28125 0.60156 0.074218 0.22656 0.10937 0.46094 0.13672 0.70703 0.019532 0.13672 0.085938 0.26172 0.085938 0.39844v3.7969l0.69141 4.3242v0.003907l0.89062 5.5078 1.4688 5.3281 3.1016 0.36328 2.6562-4.6406 2.2891-5.2812 1.375-3.9492 0.77734-2.6484v-0.40625c0-0.046875 0.023437-0.085937 0.027344-0.12891 0-0.046875-0.023438-0.089844-0.019532-0.13281 0.019532-0.20703 0.10938-0.37891 0.15625-0.57422 0.058594-0.22266 0.089844-0.44922 0.18359-0.65234 0.09375-0.19531 0.23047-0.35156 0.35547-0.52734 0.14062-0.20312 0.27344-0.40625 0.46094-0.57812 0.097656-0.09375 0.22656-0.15234 0.33984-0.23047 0.26562-0.19531 0.53516-0.37109 0.85156-0.48828 0.09375-0.03125 0.19922-0.03125 0.29297-0.0625 0.29297-0.082031 0.57812-0.17969 0.89453-0.17969 0.046876 0 0.089844 0.027343 0.13672 0.027343 0.042969 0 0.082031-0.019531 0.125-0.019531l4.8672 0.35938h4.3008c1.9609 0 3.5508 1.5898 3.5508 3.5508v0.50391l0.64844 2.75c0.003906 0.019531 0 0.03125 0 0.03125 0.003906 0.03125 0.015625 0.042968 0.015625 0.042968l0.87109 4.1641 2.0664 5.1523 2.1875 4.8906h3.3359l1.6992-5.1016 1.5898-5.3047 0.68359-4.2617 0.33984-2.7148v-0.89062c0-0.14844 0.070313-0.28125 0.089844-0.42578 0.027344-0.24219 0.0625-0.47266 0.13672-0.69531 0.074218-0.21875 0.17188-0.40234 0.28516-0.59766 0.11328-0.20312 0.23047-0.39453 0.37891-0.56641 0.14844-0.17188 0.3125-0.30859 0.49219-0.44922 0.17578-0.14062 0.35547-0.27344 0.55859-0.37891 0.21484-0.10938 0.42969-0.17578 0.66406-0.24219 0.14062-0.042969 0.26172-0.12891 0.41016-0.15234l4.8125-0.73828c0.042969-0.003906 0.085938 0.015626 0.125 0.003907 0.042969 0 0.082032-0.027344 0.11719-0.03125l4.4414-0.37109c0.007812 0 0.019531 0.003906 0.019531 0.003906 0.46094-0.039062 0.89844 0.019531 1.3203 0.14844 0.95703 0.28906 1.7148 0.93359 2.1367 1.8047l0.36328 0.73438c0.03125 0.070313 0.027344 0.14062 0.0625 0.21484 0.027344 0.070313 0.085937 0.11328 0.10938 0.1875l1.0742 3.0352 1.543 3.7891 2.9609 5.0391 3.1016 4.4531 2.957-0.49609 0.92187-5.5508 0.69922-5.4375v-6.8477l-0.11328-0.29297c-0.027344-0.070312-0.015625-0.14062-0.042969-0.21875-0.027343-0.097656-0.09375-0.17578-0.11328-0.27344-0.039062-0.15234 0-0.29688-0.015625-0.45312-0.027344-0.24219-0.050781-0.46875-0.027344-0.69922 0.019531-0.22656 0.082031-0.44141 0.13672-0.66016 0.066406-0.21875 0.13281-0.42578 0.24219-0.62891 0.097656-0.20313 0.23828-0.375 0.375-0.55859 0.14062-0.17578 0.28125-0.33984 0.45312-0.49219 0.17969-0.15625 0.38281-0.27344 0.60156-0.38672 0.12891-0.074219 0.22656-0.18359 0.37109-0.24609 0.082031-0.03125 0.16016-0.019532 0.24609-0.042969 0.089844-0.027344 0.15234-0.09375 0.24609-0.11328l4.5781-1.0938 4.3203-1.2656c0.0625-0.015625 0.11328 0 0.17188-0.015625 0.24219-0.058594 0.48438-0.058594 0.72266-0.066406 0.22656-0.003907 0.44531-0.027344 0.66406 0.003906 0.20703 0.03125 0.39844 0.125 0.60156 0.19531 0.22656 0.082032 0.45312 0.14062 0.66406 0.27344 0.17578 0.097656 0.30859 0.25 0.46875 0.38672 0.19531 0.16406 0.38672 0.32031 0.53906 0.53516 0.03125 0.046875 0.089844 0.074219 0.11719 0.11719l0.37109 0.55469s0.015625 0.050781 0.03125 0.074218c0.015625 0.027344 0.046875 0.042969 0.0625 0.070313l1.668 2.7734 0.003906 0.003907 2.3008 3.7227 3.3086 4.5312 3.7461 4.0117 2.8242-1.0859 0.26562-5.4258-0.35938-5.75 0.003906-0.015625-0.35156-4.1953-0.47656-2.6992-0.29297-0.88672c-0.070312-0.19922-0.042969-0.40234-0.074219-0.60547-0.03125-0.22656-0.09375-0.44922-0.085937-0.67578 0.015625-0.24219 0.089844-0.46484 0.14062-0.69141 0.058594-0.21484 0.085938-0.42188 0.17578-0.62109 0.097657-0.21484 0.24609-0.38281 0.38281-0.57422 0.12891-0.18359 0.24219-0.37109 0.40234-0.52734 0.17578-0.16016 0.38672-0.26953 0.59375-0.39453 0.16406-0.10547 0.29297-0.24609 0.48828-0.32031l3.9961-1.6328 4.1445-1.9844c0.13281-0.066406 0.28516-0.0625 0.42188-0.10547 0.26562-0.089844 0.51953-0.17578 0.80078-0.19922 0.20703-0.019531 0.40234 0.015625 0.60547 0.03125 0.24609 0.019531 0.48828 0.03125 0.72266 0.10547 0.23828 0.070312 0.44141 0.19531 0.66016 0.3125 0.14844 0.082031 0.3125 0.10937 0.45312 0.21875l0.69922 0.52734s0.003906 0 0.003906 0.003907l0.03125 0.023437c0.16406 0.125 0.26562 0.29688 0.39844 0.44922 0.17969 0.18359 0.37891 0.33594 0.51562 0.5625l1.4453 2.4062 2.8359 2.8359 4.2578 4.082 4.0742 3.3047 2.8086-1.6367-0.51172-5.0391-1.4219-5.668s0-0.039062-0.003906-0.0625c-0.003907-0.027344-0.023438-0.046875-0.023438-0.046875l-0.82812-3.9727-1.2422-2.3242c-0.039063-0.070312-0.03125-0.15234-0.066407-0.22266-0.050781-0.11328-0.12891-0.20312-0.17187-0.32031l-0.37109-1.1094c-0.03125-0.097656-0.015625-0.19922-0.039063-0.29688-0.058593-0.23828-0.082031-0.46484-0.089843-0.69141-0.003907-0.23047-0.007813-0.45312 0.027343-0.68359 0.039063-0.21875 0.097657-0.42188 0.17578-0.63281 0.085938-0.21875 0.16016-0.42578 0.28516-0.62109 0.11328-0.1875 0.25-0.35156 0.39844-0.51562 0.16016-0.18359 0.32812-0.35156 0.53125-0.49609 0.082032-0.058594 0.125-0.14844 0.21484-0.19922l3.7891-2.3438 3.7891-2.7031c0.20703-0.14844 0.44531-0.19922 0.66797-0.29687 0.19531-0.085938 0.375-0.20703 0.57812-0.26172 0.29297-0.066407 0.58594-0.046875 0.88672-0.039063 0.15625 0 0.3125-0.039062 0.46875-0.015625 0.28906 0.042969 0.54297 0.17188 0.81641 0.28516 0.15625 0.066406 0.32031 0.089843 0.47266 0.17578 0.20703 0.125 0.37109 0.32031 0.55078 0.49219 0.15625 0.14062 0.33984 0.24609 0.47266 0.41797l0.28125 0.36328 2.2227 1.7461c0.046875 0.039062 0.066406 0.089844 0.10547 0.12891 0.042969 0.03125 0.097657 0.046875 0.13672 0.085938l3.0547 2.8789 4.8633 2.957 0.007812 0.007813 0.015626 0.003906 4.375 2.6992 2.6602-2.1133-1.5547-4.7969v-0.015624l-1.9375-5.625-1.875-3.7461-1.4062-2.4688-0.58984-0.92188c-0.070312-0.11328-0.074218-0.24609-0.12891-0.36328-0.097656-0.21484-0.17578-0.42188-0.22656-0.64844-0.058594-0.22656-0.089844-0.44531-0.097656-0.68359-0.003907-0.22266 0.003906-0.42969 0.039062-0.65234 0.03125-0.23047 0.089844-0.44531 0.16406-0.66797 0.074219-0.20312 0.16016-0.39844 0.28125-0.59375 0.125-0.21484 0.26953-0.39844 0.4375-0.58203 0.085938-0.089843 0.125-0.20312 0.21875-0.28906l3.5-3.1289 3.2031-3.0195v-0.003906l0.074218-0.070312c0.17188-0.16016 0.375-0.23828 0.5625-0.35547 0.19531-0.125 0.37109-0.28516 0.57812-0.36328 0.25391-0.097656 0.51562-0.10938 0.78125-0.14844 0.1875-0.027344 0.36328-0.09375 0.55469-0.09375 0.24609 0 0.47266 0.085938 0.70703 0.13672 0.21484 0.046875 0.42578 0.058594 0.62891 0.13672 0.20312 0.089844 0.37109 0.24609 0.55469 0.37109 0.19531 0.12891 0.40625 0.21484 0.57812 0.38281l0.51953 0.51953 1.9609 1.3594 4 2.2578 5.3242 2.3047 4.8633 1.8438 2.0547-2.2734-2.1836-4.6211-3.0078-5.3086-2.2461-3.2734-1.8984-2.25c-0.050782-0.066406-0.066407-0.13672-0.10938-0.20312-0.039062-0.050781-0.097656-0.070313-0.13281-0.11719l-0.73828-1.1094c-0.039063-0.058594-0.042969-0.11719-0.074219-0.17969-0.13281-0.22266-0.20703-0.46094-0.28906-0.69531-0.066407-0.20312-0.14063-0.39453-0.17188-0.59766-0.039062-0.23828-0.015624-0.46875 0-0.69922 0.015626-0.21875 0.015626-0.42969 0.070313-0.64453 0.050781-0.21484 0.15625-0.40625 0.25-0.60938 0.097656-0.22266 0.19922-0.44141 0.33984-0.64062 0.042969-0.058594 0.050781-0.11719 0.097656-0.17578l2.7734-3.3281h0.003907l3.1055-3.8438c0.042968-0.050782 0.097656-0.070313 0.14062-0.11719 0.046876-0.050781 0.0625-0.10938 0.10547-0.15625 0.12891-0.12891 0.29297-0.18359 0.4375-0.29297 0.19531-0.13672 0.375-0.28906 0.58594-0.38672 0.20703-0.097657 0.42578-0.13672 0.64453-0.19531 0.22266-0.058594 0.4375-0.11719 0.66406-0.12891 0.23047-0.015625 0.44531 0.027344 0.67578 0.058594 0.22266 0.039062 0.44141 0.058594 0.66016 0.12891 0.22266 0.082031 0.41797 0.20312 0.625 0.32812 0.15234 0.089844 0.32031 0.125 0.46484 0.24219 0.050781 0.042969 0.074218 0.097657 0.11719 0.14063 0.050781 0.046874 0.10938 0.0625 0.15625 0.10547l0.29297 0.29297 2.0117 0.9375 4.207 1.4023 5.3672 1.6094 5.3906 1.0781 1.6367-2.4219-2.875-4.6562-3.4531-4.4883-2.8789-2.8789-2.2812-1.9336c-0.039062-0.03125-0.058594-0.085937-0.09375-0.11328-0.039062-0.027343-0.089844-0.046875-0.125-0.085937l-0.73828-0.73828c-0.03125-0.03125-0.042969-0.082031-0.082031-0.11328-0.17578-0.1875-0.29297-0.41016-0.42188-0.63281-0.10547-0.17969-0.23047-0.34766-0.29687-0.53906-0.085938-0.21875-0.097657-0.44531-0.13281-0.67578-0.03125-0.22266-0.09375-0.4375-0.089844-0.65234 0.007813-0.20703 0.082031-0.41016 0.125-0.625 0.050781-0.24609 0.089844-0.49219 0.19531-0.71875 0.023437-0.046875 0.015625-0.09375 0.039062-0.13281l2.0352-4.0664 0.050782-0.070312c0.019531-0.027344 0.015625-0.066406 0.03125-0.09375l2.4062-4.2539c0.023437-0.042969 0.066406-0.066406 0.089844-0.097656 0.027343-0.039063 0.027343-0.085938 0.050781-0.11719 0.10938-0.16406 0.27344-0.26562 0.40625-0.40234 0.16016-0.17578 0.30469-0.35938 0.49609-0.49219 0.19922-0.14062 0.42188-0.22266 0.64063-0.32031 0.19531-0.085937 0.375-0.18359 0.57812-0.23828 0.25-0.0625 0.49609-0.050781 0.75391-0.0625 0.19922-0.003906 0.39453-0.03125 0.59375 0 0.24609 0.03125 0.46875 0.13672 0.69922 0.22266 0.17969 0.066407 0.35937 0.074219 0.53125 0.17188 0.042968 0.023438 0.066406 0.066406 0.097656 0.089844 0.039062 0.027344 0.085937 0.027344 0.11719 0.050781l0.62109 0.41016 2.0938 0.5625 4.2422 0.88281 5.625 0.69922 5.3711 0.26172 1.2422-2.8477-3.5391-3.7891-4.1992-4.0273-3.2344-2.5508-2.4844-1.4922-0.59375-0.29297c-0.13281-0.070313-0.22266-0.1875-0.34766-0.27344-0.20312-0.12891-0.38672-0.26562-0.55469-0.42969-0.16016-0.16016-0.29297-0.33594-0.41797-0.52734-0.12891-0.1875-0.24219-0.375-0.32812-0.58203-0.09375-0.21484-0.14062-0.42969-0.1875-0.65234-0.046875-0.21875-0.085937-0.42578-0.089844-0.65234-0.003906-0.24609 0.03125-0.47656 0.085938-0.72266 0.027343-0.13672 0-0.28125 0.046875-0.41797l1.4766-4.625c0.007813-0.027344 0.03125-0.046875 0.042969-0.074219 0 0 0-0.066406 0.015625-0.09375l1.668-4.4414c0.070312-0.17578 0.19922-0.29688 0.29297-0.46484 0.13281-0.24219 0.25-0.49219 0.42969-0.6875 0.10938-0.11719 0.25391-0.1875 0.375-0.29297 0.23047-0.1875 0.46094-0.38281 0.72266-0.51172 0.14062-0.066407 0.29688-0.074219 0.44531-0.11719 0.28516-0.09375 0.55859-0.1875 0.86328-0.20312 0.20312-0.019531 0.40625 0.046875 0.61719 0.070313 0.23828 0.027343 0.47266 0.003906 0.70703 0.085937l0.76562 0.25391 2.7812 0.32813h0.003906l4.0312 0.33594 5.6875-0.35547h0.007813l5.3086-0.51562 0.83984-2.957-4.3281-3.25-4.5703-3.3398-3.8047-1.8984c-0.015625-0.003907-0.023438-0.023438-0.042969-0.03125-0.007812-0.003907-0.027343 0-0.027343 0l-2.5195-1.3438-0.83203-0.28125c-0.19531-0.066407-0.33594-0.19922-0.51172-0.29297-0.20312-0.10547-0.41797-0.19922-0.59375-0.33594-0.17969-0.14844-0.30859-0.33203-0.46094-0.50781-0.14062-0.17578-0.29297-0.33203-0.40625-0.52734-0.10938-0.20312-0.16016-0.42578-0.23047-0.64844-0.070312-0.21484-0.15234-0.41797-0.17969-0.64062-0.027343-0.24219 0.015626-0.48438 0.039063-0.73047 0.015625-0.18359-0.023437-0.35938 0.023437-0.54297l1.0508-4.1992 0.53125-4.4336c0.023437-0.18359 0.11328-0.33203 0.16016-0.49609 0.0625-0.21875 0.10938-0.42578 0.20312-0.62109 0.10938-0.22656 0.26172-0.41797 0.41016-0.60938 0.12891-0.16016 0.24609-0.32031 0.40234-0.46484 0.16406-0.14844 0.35156-0.26172 0.54297-0.37109 0.20703-0.12891 0.40625-0.25 0.64453-0.33203 0.1875-0.066406 0.39453-0.085937 0.59766-0.11719 0.19531-0.027344 0.36328-0.10938 0.5625-0.10938h4.0352l4.082-0.50781 5.6719-1.0664 5.2266-1.4453 0.44531-3.0273-4.6367-2.7852zm-100.03-146.61 17.859 13.707 25.715 33.855 16.293 39.113 2.9219 22.148h-113.27l-2.2344-5.3945c-0.050781-0.125-0.15234-0.20313-0.21875-0.31641-0.070313-0.13281-0.09375-0.28125-0.17969-0.40234l-3.4609-4.7969zm-139.26-28.09 42.016-5.793 42.191 5.793 20.758 8.3047-56.52 98.176-5.9609-0.79688c-0.1875-0.027344-0.35938 0.027344-0.53906 0.03125-0.14062 0-0.27344-0.050781-0.42188-0.03125l-5.5898 0.78125-56.691-98.16zm59.324 156.75-0.60547 4.2539-1.6797 4.2812-2.8711 3.4766-3.5703 2.6445-3.9727 1.6758-4.5938 0.61719-4.2773-0.60938-4.3711-1.7148-3.4492-2.5469-2.5469-3.4492-1.6875-4.3008-0.46484-4.3281 0.46484-4.3281 1.6758-4.2539 2.6016-3.3672 3.5-2.8906 4.2773-1.6797 4.2773-0.60938 4.5938 0.61719 3.8828 1.6445 3.6289 2.9961 2.918 3.3828 1.6719 4.2422zm-174.06-41.98 16.293-39.113 25.715-33.859 17.688-13.691 56.703 97.824-3.707 4.7734c-0.10547 0.13672-0.13672 0.29688-0.22266 0.44922-0.082031 0.13281-0.19531 0.22656-0.25391 0.375l-2.2344 5.3945h-112.9zm59.703 170.59-17.699-13.852-25.715-33.676-16.285-38.918-2.9258-22.34h112.88l2.25 5.5508c0.14063 0.35156 0.33594 0.66797 0.57422 0.94141l0.007813 0.023438 3.5625 4.1992zm139.24 28.133-42.191 5.793-42.016-5.793-20.746-8.3008 56.711-98.023 5.6367 0.65234c0.13281 0.015625 0.26953 0.023437 0.40234 0.023437h0.015626c0.125 0 0.25391-0.003906 0.38281-0.023437l6.0195-0.67188 56.539 98.035zm114.92-114.58-16.285 38.918-25.707 33.664-17.879 13.875-56.52-98.164 3.2617-4.1445 0.015625-0.015625 0.042969-0.058593c0.027344-0.039063 0.03125-0.082032 0.0625-0.11719 0.16406-0.22656 0.33203-0.46875 0.44531-0.74219l2.25-5.5508h113.25z"/>
  <path d="m381.31 372.9-0.74219-0.41016-1.4141-0.71094h-2.3281l-1.1602 0.62891-0.76562 0.48438-0.60547 0.86719-0.48438 1.3164-0.20312 1.1367 0.21875 1.293 0.35547 0.98047 1.6562 1.6562 0.85547 0.3125 1.2617 0.11328 1.3008-0.11719 1.1484-0.38281 0.92578-0.82031 0.63281-0.74219 0.39453-0.86719v-2.7227l-0.51953-1.1367z"/>
 </g>
</symbol>


<symbol id="photos" viewbox="0 0 700 700">
  <rect width="200" height="280" x="250" y="70" rx="100px" fill="rgba(241, 140, 0, .5)"/>
  
    <rect width="200" height="280" x="250" y="70" rx="100px" transform="rotate(45) translate(145 -367)" fill="rgba(203, 180, 0, 0.6)"/>

  
     <rect width="280" height="200" x="350" y="250" rx="100px"  fill="rgba(91, 227, 5, 0.6)"/> 
  
  
         <rect width="280" height="200" x="350" y="250" rx="100px"  transform="rotate(45) translate(161 -350)" fill="rgba(30, 231, 158, .5)"/> 
  
  <rect width="200" height="280" x="250" y="350" rx="100px" fill="rgba(21, 129, 231, .5)" />
  
    <rect width="200" height="280" x="250" y="350" rx="100px" fill="rgba(146, 91, 239, .5)" transform="rotate(45) translate(144 -334)" />
  
  
      <rect width="280" height="200" x="70" y="250" rx="100px"  fill="rgba(231, 33, 131, .5)"/>
  
        <rect width="280" height="200" x="70" y="250" rx="100px"  fill="rgba(245, 71, 56, .5)" transform="rotate(45) translate(129 -351)"/>
  
  <circle cx="350" cy="350" r="20" fill="#FFF" />
</symbol>


<symbol id="maps" viewBox="0 0 700 700" >
      <rect width="18%" height="450" x="-5" y="250" fill="#ffccd6" stroke="#ffbac8" />
  
   <rect width="80%" height="400" x="200" y="0" fill="#9ee07c" />
  
     <rect width="30%" height="150" x="550" y="350" fill="#9ee07c" />
  
  <circle cx="700" y="-125" r="295" fill="#f1f0ea" stroke="#87c766" stroke-width="4" />
  
    <circle cx="700" y="-125" r="175" fill="#9ddf7b" stroke="#87c766" stroke-width="4" />
  
        <rect width="25%" height="1000" x="-5" y="0" fill="#ffd531" stroke="#fcaf19" stroke-width="4" transform="rotate(-60) translate(-230 -40)" />
  
  <rect width="18%" height="710" x="120" y="-5" fill="#fff" stroke="#d1cfcb" stroke-width="5" />
  
    <rect width="8%" height="40%" x="157" y="-5" fill="#3494e2" stroke="#0779dc" stroke-width="4" />
  
  <circle cx="26%" cy="49%" r="14%" fill="#0779dc" />
  
  <path fill="#fff" d="M 128 387 L 180 270 L 237 387 L 180 350 L 128 387 "/>

</symbol>


<symbol id="calling" viewBox="0 0 752 752">
 <path fill="#fff" d="m561.17 489.5c9.3516 9.3828 13.672 22.66 11.641 35.75-2.0352 13.09-10.184 24.43-21.941 30.531-33.129 17.707-71.73 22.23-108.05 12.668-96.414-24.27-235-162.85-259.27-259.27-9.5664-36.328-5.0391-74.926 12.668-108.05 6.1016-11.758 17.441-19.906 30.531-21.941s26.367 2.2891 35.75 11.641l41.141 41.121c5.9336 5.875 9.9492 13.406 11.516 21.609 1.5703 8.1992 0.61719 16.68-2.7344 24.328-3.6641 8.582-8.8672 16.418-15.352 23.129-47.043 47.043 106.89 200.98 153.91 153.91v-0.003906c6.7109-6.5078 14.555-11.73 23.148-15.41 7.6445-3.3516 16.129-4.3086 24.332-2.7422 8.1992 1.5664 15.734 5.5859 21.605 11.523z"/>
</symbol>


<symbol id="browser" viewBox="0 0 752 752">
 <g>
   
   <defs>
    <linearGradient id="safariGradient" gradientTransform="rotate(90)">
      <stop offset="0%" stop-color="#2fccfa" />
      <stop offset="100%" stop-color="#1a6cf0" />
    </linearGradient>
   </defs>
   <defs>
       <linearGradient id="compassGradient" gradientTransform="rotate(327.5)">
      <stop offset="15%" stop-color="#fff" />
      <stop offset="15.5%" stop-color="#f43726" />
    </linearGradient>
  </defs>
  
   <circle cx="375" cy="375" r="190" fill="url(#safariGradient)" />
  <path  fill="url(#compassGradient)" d="m510.23 264.79c-0.55078 0.027344-1.0898 0.16797-1.582 0.41797l-156.38 80.863-113.62 134.43c-1.1953 1.4062-1.2266 3.4609-0.074219 4.9023s3.1641 1.8633 4.8008 1.0117l156.36-80.863 113.6-134.43h-0.003906c0.98047-1.1719 1.1758-2.8047 0.50391-4.1758-0.67188-1.3672-2.0859-2.2109-3.6094-2.1523z"/>
  <path fill="#fff" d="m319.79 252.42c0.60156 1.4219-0.019531 3.0625-1.4062 3.7344-1.3906 0.66797-3.0586 0.13281-3.7969-1.2227l-6.9648-14.453c-0.60156-1.418 0.015625-3.0586 1.4062-3.7305 1.3867-0.66797 3.0586-0.13281 3.7969 1.2188z"/>
  <path fill="#fff" d="m255.67 283.55 12.555 10.004h-0.003906c1.25 0.99609 3.0703 0.78906 4.0664-0.46094 0.99609-1.2461 0.79297-3.0664-0.45703-4.0625l-12.555-10.004h0.003906c-1.25-0.99609-3.0703-0.79297-4.0664 0.45703-0.99609 1.25-0.79297 3.0703 0.45703 4.0664z"/>
  <path fill="#fff" d="m244.49 342.83-15.641-3.5703c-1.5586-0.35937-3.1172 0.60938-3.4766 2.168-0.36328 1.5547 0.60547 3.1133 2.1641 3.4766l15.641 3.5703v-0.003906c1.5586 0.36328 3.1133-0.60547 3.4766-2.1641 0.36328-1.5586-0.60547-3.1133-2.1641-3.4766z"/>
  <path fill="#fff" d="m244.49 408.8c1.5586-0.36328 2.5273-1.918 2.1641-3.4766-0.36328-1.5586-1.918-2.5273-3.4766-2.1641l-15.641 3.5703c-1.5586 0.35938-2.5273 1.918-2.1641 3.4766 0.35938 1.5547 1.918 2.5273 3.4766 2.1641z"/>
  <path fill="#fff" d="m312.82 513.66 6.9648-14.453c0.60156-1.4219-0.019531-3.0625-1.4062-3.7305-1.3906-0.67188-3.0586-0.13672-3.7969 1.2188l-6.9648 14.453c-0.60156 1.4219 0.015625 3.0625 1.4062 3.7305 1.3867 0.67188 3.0586 0.13281 3.7969-1.2188z"/>
  <path fill="#fff" d="m378.89 224.21c-0.125-1.5-1.3789-2.6523-2.8828-2.6523s-2.7578 1.1523-2.8828 2.6523v16.043c0.125 1.5 1.3789 2.6523 2.8828 2.6523s2.7578-1.1523 2.8828-2.6523z"/>
  <path fill="#fff" d="m437.42 254.93 6.9648-14.453c0.60156-1.4219-0.019531-3.0625-1.4062-3.7305-1.3906-0.67188-3.0586-0.13281-3.7969 1.2188l-6.9648 14.453h-0.003906c-0.59766 1.4219 0.019531 3.0625 1.4102 3.7344 1.3867 0.66797 3.0586 0.13281 3.7969-1.2227z"/>
  <path fill="#fff" d="m508.82 348.47 15.645-3.5703v0.003906c1.5586-0.36328 2.5273-1.918 2.1641-3.4766-0.36328-1.5586-1.918-2.5273-3.4766-2.1641l-15.645 3.5703v-0.003906c-1.5586 0.36328-2.5273 1.918-2.1641 3.4766 0.36328 1.5586 1.918 2.5273 3.4766 2.1641z"/>
  <path fill="#fff" d="m507.52 408.8 15.645 3.5703c1.5586 0.36328 3.1133-0.60938 3.4766-2.1641 0.36328-1.5586-0.60547-3.1172-2.1641-3.4766l-15.645-3.5703c-1.5586-0.36328-3.1133 0.60547-3.4766 2.1641-0.36328 1.5586 0.60547 3.1133 2.1641 3.4766z"/>
  <path fill="#fff" d="m439.18 513.66c0.73828 1.3516 2.4062 1.8906 3.7969 1.2188 1.3867-0.66797 2.0078-2.3086 1.4062-3.7305l-6.9648-14.453c-0.73828-1.3555-2.4102-1.8906-3.7969-1.2188-1.3906 0.66797-2.0078 2.3086-1.4102 3.7305z"/>
  <path fill="#fff" d="m378.89 527.42v-16.043c-0.125-1.4961-1.3789-2.6523-2.8828-2.6523s-2.7578 1.1562-2.8828 2.6523v16.043c0.125 1.5 1.3789 2.6523 2.8828 2.6523s2.7578-1.1523 2.8828-2.6523z"/>
  <path fill="#fff" d="m496.34 468.08-12.555-10.004v0.003906c-1.25-0.99609-3.0703-0.79297-4.0664 0.45703s-0.78906 3.0703 0.45703 4.0664l12.555 10c1.25 0.99609 3.0703 0.79297 4.0664-0.45703s0.79297-3.0703-0.45703-4.0664z"/>
 </g>
</symbol>



<symbol id="messaging" viewBox="0 0 752 752">
 <path fill="#fff" d="m376 198.41c-106.28 0-192.39 69.555-192.39 155.39 0 60.031 42.18 112.11 103.88 138-4.8086 23.863-19.426 43.473-30.984 55.961-2.1289 2.3125 0.18359 6.0117 3.3281 5.8281 10.637-0.73828 30.43-4.0703 47.172-11.746 19.887-9.1562 37.277-27.84 42.824-34.133 8.6016 0.92578 17.391 1.4805 26.363 1.4805 106.28 0 192.39-69.559 192.39-155.39-0.18359-85.836-86.297-155.39-192.58-155.39z"/>
</symbol>

<symbol id="music" viewBox="0 0 752 752" >
  
   <path fill="url(#bluepurpleGradient)" d="m463.14 420.99c-38.359 8.0508-64.879 37.887-58.723 65.828 6.1562 28.414 42.621 44.516 80.98 36.465 32.676-7.1055 56.828-29.363 59.199-53.516v-5.2109-186.59-90.453c0-9.9453-8.0508-17.523-17.996-17.523-2.8398 0-5.6836 0.94531-8.5234 2.3672l-203.64 54.461c-9.9453 0-17.996 8.0508-17.996 17.523v235.37c-13.262-4.2617-29.363-5.2109-45.938-1.8945-38.359 8.0508-64.879 37.887-58.723 65.828 6.1562 28.414 42.621 44.516 80.98 36.465 32.676-7.1055 56.828-29.363 59.199-53.516v-5.2109-184.7l175.7-47.359v133.08c-12.316-4.2617-28.418-5.207-44.52-1.418z" />
 <path d="m463.14 420.99c-38.359 8.0508-64.879 37.887-58.723 65.828 6.1562 28.414 42.621 44.516 80.98 36.465 32.676-7.1055 56.828-29.363 59.199-53.516v-5.2109-186.59-90.453c0-9.9453-8.0508-17.523-17.996-17.523-2.8398 0-5.6836 0.94531-8.5234 2.3672l-203.64 54.461c-9.9453 0-17.996 8.0508-17.996 17.523v235.37c-13.262-4.2617-29.363-5.2109-45.938-1.8945-38.359 8.0508-64.879 37.887-58.723 65.828 6.1562 28.414 42.621 44.516 80.98 36.465 32.676-7.1055 56.828-29.363 59.199-53.516v-5.2109-184.7l175.7-47.359v133.08c-12.316-4.2617-28.418-5.207-44.52-1.418z" fill="#fa5b6e" mask="url(#fade)"/>

  <defs>
    <linearGradient id="fadeGradient" gradientTransform="rotate(90)">
      <stop offset="0" stop-color="white" stop-opacity="1"/>
      <stop offset="10" stop-color="white" stop-opacity="0"/>
    </linearGradient>

    <mask id="fade" maskContentUnits="objectBoundingBox">
      <rect width="1" height="1" fill="url(#fadeGradient)"/>
    </mask>
    
        <linearGradient id="bluepurpleGradient" gradientTransform="rotate(0)">
      <stop offset="0" stop-color="#875ffb" />
      <stop offset="50" stop-color="#09affe"/>
    </linearGradient>
  </defs>

</symbol>


</svg>
